<?xml version="1.0" encoding="UTF-8"?>
<!DOCTYPE svg PUBLIC "-//W3C//DTD SVG 1.1//EN" "http://www.w3.org/Graphics/SVG/1.1/DTD/svg11.dtd">
<!-- Creator: CorelDRAW 2019 (64 Bit) -->
<svg xmlns="http://www.w3.org/2000/svg" xml:space="preserve" width="90mm" height="90mm" version="1.1" style="shape-rendering:geometricPrecision; text-rendering:geometricPrecision; image-rendering:optimizeQuality; fill-rule:evenodd; clip-rule:evenodd"
viewBox="0 0 9000 9000"
 xmlns:xlink="http://www.w3.org/1999/xlink"
 xmlns:xodm="http://www.corel.com/coreldraw/odm/2003">
 <defs>
  <style type="text/css">
   <![CDATA[
    .str2 {stroke:#FEFEFE;stroke-width:50;stroke-miterlimit:22.9256}
    .str1 {stroke:#373435;stroke-width:50;stroke-miterlimit:22.9256}
    .str0 {stroke:#373435;stroke-width:20;stroke-miterlimit:22.9256}
    .fil29 {fill:none}
    .fil19 {fill:#373435}
    .fil28 {fill:black}
    .fil22 {fill:#158688}
    .fil8 {fill:#22A8AC}
    .fil26 {fill:silver}
    .fil10 {fill:#C1C0BF}
    .fil27 {fill:black;fill-rule:nonzero}
    .fil14 {fill:url(#id0)}
    .fil4 {fill:url(#id1)}
    .fil2 {fill:url(#id2)}
    .fil17 {fill:url(#id3)}
    .fil6 {fill:url(#id4)}
    .fil7 {fill:url(#id5)}
    .fil21 {fill:url(#id6)}
    .fil1 {fill:url(#id7)}
    .fil20 {fill:url(#id8)}
    .fil18 {fill:url(#id9)}
    .fil0 {fill:url(#id10)}
    .fil9 {fill:url(#id11)}
    .fil3 {fill:url(#id12)}
    .fil15 {fill:url(#id13)}
    .fil13 {fill:url(#id14)}
    .fil16 {fill:url(#id15)}
    .fil11 {fill:url(#id16)}
    .fil5 {fill:url(#id17)}
    .fil23 {fill:url(#id18)}
    .fil12 {fill:url(#id19)}
    .fil25 {fill:url(#id20)}
    .fil24 {fill:url(#id21)}
   ]]>
  </style>
  <linearGradient id="id0" gradientUnits="objectBoundingBox" x1="50%" y1="100%" x2="50%" y2="0%">
   <stop offset="0" style="stop-opacity:1; stop-color:#064B4A"/>
   <stop offset="1" style="stop-opacity:1; stop-color:#044A48"/>
  </linearGradient>
  <linearGradient id="id1" gradientUnits="objectBoundingBox" x1="50%" y1="0%" x2="50%" y2="100%">
   <stop offset="0" style="stop-opacity:1; stop-color:#077778"/>
   <stop offset="0.501961" style="stop-opacity:1; stop-color:#0BB3B9"/>
   <stop offset="1" style="stop-opacity:1; stop-color:#1C7172"/>
  </linearGradient>
  <linearGradient id="id2" gradientUnits="objectBoundingBox" xlink:href="#id1" x1="50%" y1="100%" x2="50%" y2="0%">
  </linearGradient>
  <linearGradient id="id3" gradientUnits="objectBoundingBox" x1="50%" y1="100%" x2="50%" y2="0%">
   <stop offset="0" style="stop-opacity:1; stop-color:#0E5455"/>
   <stop offset="0.521569" style="stop-opacity:1; stop-color:#0CB8BF"/>
   <stop offset="1" style="stop-opacity:1; stop-color:#0A6769"/>
  </linearGradient>
  <linearGradient id="id4" gradientUnits="objectBoundingBox" x1="50%" y1="100%" x2="50%" y2="0%">
   <stop offset="0" style="stop-opacity:1; stop-color:#136B6D"/>
   <stop offset="0.478431" style="stop-opacity:1; stop-color:#208D91"/>
   <stop offset="1" style="stop-opacity:1; stop-color:#136B6D"/>
  </linearGradient>
  <linearGradient id="id5" gradientUnits="objectBoundingBox" x1="50%" y1="100%" x2="50%" y2="0%">
   <stop offset="0" style="stop-opacity:1; stop-color:#114445"/>
   <stop offset="0.14902" style="stop-opacity:1; stop-color:#16898B"/>
   <stop offset="0.878431" style="stop-opacity:1; stop-color:#22A9AD"/>
   <stop offset="1" style="stop-opacity:1; stop-color:#404D4D"/>
  </linearGradient>
  <linearGradient id="id6" gradientUnits="objectBoundingBox" x1="0%" y1="50%" x2="100%" y2="50%">
   <stop offset="0" style="stop-opacity:1; stop-color:#114E4D"/>
   <stop offset="1" style="stop-opacity:1; stop-color:#135150"/>
  </linearGradient>
  <linearGradient id="id7" gradientUnits="objectBoundingBox" x1="0%" y1="50%" x2="100%" y2="50%">
   <stop offset="0" style="stop-opacity:1; stop-color:#2E6E70"/>
   <stop offset="0.509804" style="stop-opacity:1; stop-color:#09AFB5"/>
   <stop offset="1" style="stop-opacity:1; stop-color:#1D7172"/>
  </linearGradient>
  <linearGradient id="id8" gradientUnits="objectBoundingBox" xlink:href="#id6" x1="0%" y1="50%" x2="100%" y2="50%">
  </linearGradient>
  <linearGradient id="id9" gradientUnits="objectBoundingBox" x1="0%" y1="50%" x2="100%" y2="50%">
   <stop offset="0" style="stop-opacity:1; stop-color:#1C6A6A"/>
   <stop offset="1" style="stop-opacity:1; stop-color:#0E4543"/>
  </linearGradient>
  <linearGradient id="id10" gradientUnits="objectBoundingBox" xlink:href="#id7" x1="0%" y1="50%" x2="100%" y2="50%">
  </linearGradient>
  <linearGradient id="id11" gradientUnits="objectBoundingBox" x1="49.23%" y1="0.00343506%" x2="50.77%" y2="99.9966%">
   <stop offset="0" style="stop-opacity:1; stop-color:#148689"/>
   <stop offset="0.509804" style="stop-opacity:1; stop-color:#55FAFA"/>
   <stop offset="0.619608" style="stop-opacity:1; stop-color:#53F6F6"/>
   <stop offset="1" style="stop-opacity:1; stop-color:#14888A"/>
  </linearGradient>
  <linearGradient id="id12" gradientUnits="userSpaceOnUse" xlink:href="#id1" x1="1021.53" y1="4564.93" x2="762.24" y2="4564.92">
  </linearGradient>
  <linearGradient id="id13" gradientUnits="userSpaceOnUse" xlink:href="#id0" x1="7786.27" y1="4724.7" x2="7786.27" y2="4568.6">
  </linearGradient>
  <linearGradient id="id14" gradientUnits="objectBoundingBox" x1="50%" y1="100%" x2="50%" y2="0%">
   <stop offset="0" style="stop-opacity:1; stop-color:#0A5556"/>
   <stop offset="0.478431" style="stop-opacity:1; stop-color:#218F93"/>
   <stop offset="1" style="stop-opacity:1; stop-color:#0A5556"/>
  </linearGradient>
  <linearGradient id="id15" gradientUnits="userSpaceOnUse" xlink:href="#id0" x1="7784.29" y1="4520.97" x2="7784.29" y2="4424.4">
  </linearGradient>
  <linearGradient id="id16" gradientUnits="userSpaceOnUse" xlink:href="#id14" x1="7670.53" y1="4424.4" x2="7670.53" y2="4343.7">
  </linearGradient>
  <linearGradient id="id17" gradientUnits="objectBoundingBox" x1="0%" y1="50%" x2="100%" y2="50%">
   <stop offset="0" style="stop-opacity:1; stop-color:#0C3F3C"/>
   <stop offset="0.521569" style="stop-opacity:1; stop-color:#21797A"/>
   <stop offset="1" style="stop-opacity:1; stop-color:#0D4240"/>
  </linearGradient>
  <linearGradient id="id18" gradientUnits="userSpaceOnUse" xlink:href="#id14" x1="4318.33" y1="4424.4" x2="4318.33" y2="4343.7">
  </linearGradient>
  <linearGradient id="id19" gradientUnits="objectBoundingBox" xlink:href="#id14" x1="50%" y1="100%" x2="50%" y2="0%">
  </linearGradient>
  <linearGradient id="id20" gradientUnits="userSpaceOnUse" xlink:href="#id0" x1="4432.09" y1="4520.97" x2="4432.09" y2="4424.4">
  </linearGradient>
  <linearGradient id="id21" gradientUnits="userSpaceOnUse" xlink:href="#id0" x1="4434.07" y1="4724.7" x2="4434.07" y2="4568.6">
  </linearGradient>
 </defs>
 <g id="Camada_x0020_1">
  <metadata id="CorelCorpID_0Corel-Layer"/>
  <polygon class="fil0" points="4405.64,3220.34 4405.64,4047.17 4664.93,4047.17 4664.93,3479.63 "/>
  <polygon class="fil1" points="4408.21,5874.08 4408.21,5063.13 4667.5,5063.13 4667.5,5614.79 "/>
  <polygon class="fil0" points="8014.56,4056.96 7755.27,4056.96 7755.27,3479.63 8014.56,3220.34 "/>
  <polygon class="fil2" points="7755.27,3479.63 4664.93,3479.63 4405.64,3220.34 8014.56,3220.34 "/>
  <polygon class="fil3" points="1021.53,1638.63 1021.53,7491.22 762.24,7750.51 762.24,1379.34 "/>
  <polygon class="fil2" points="4498.16,1638.63 1021.53,1638.63 762.24,1379.34 4508.74,1379.34 "/>
  <polygon class="fil4" points="7757.84,5614.79 4667.5,5614.79 4408.21,5874.08 8017.13,5874.08 "/>
  <rect class="fil5 str0" x="7551.46" y="4941.71" width="672.04" height="112.16"/>
  <rect class="fil6 str0" x="7604.36" y="4424.4" width="165.37" height="300.3"/>
  <rect class="fil7 str0" x="6583.1" y="4311.93" width="955.15" height="523.88"/>
  <rect class="fil8" x="6876.78" y="4252.51" width="404.81" height="85.98"/>
  <path class="fil9 str0" d="M6583.1 4311.93c-127.51,0.13 -209.81,38.24 -259.34,103.83 -75.11,99.49 -64.43,224.56 10.52,321.08 52.34,67.4 134.47,101.31 248.82,98.97l0 -523.88z"/>
  <rect class="fil10 str0" x="6646.57" y="4431" width="844.03" height="267.24"/>
  <rect class="fil11 str0" x="7538.25" y="4343.7" width="264.56" height="80.7"/>
  <rect class="fil12 str0" x="7538.25" y="4520.97" width="264.56" height="47.63"/>
  <rect class="fil13 str0" x="7538.25" y="4724.7" width="264.56" height="52.92"/>
  <rect class="fil14 str0" x="7538.25" y="4424.4" width="66.12" height="96.57"/>
  <rect class="fil14 str0" x="7548.81" y="4568.6" width="56.89" height="156.1"/>
  <rect class="fil15 str0" x="7769.74" y="4568.6" width="33.07" height="156.1"/>
  <rect class="fil16 str0" x="7765.77" y="4424.4" width="37.04" height="96.57"/>
  <rect class="fil17 str0" x="7802.81" y="4169.11" width="230.19" height="772.59"/>
  <path class="fil18 str0" d="M8033 4849.11l0 -537.11c57.37,58.83 90.02,124.11 103.08,194.48 25.97,140.2 -9.32,234.61 -103.08,342.63z"/>
  <rect class="fil19 str0" x="7575.19" y="4913.31" width="30.42" height="28.4"/>
  <rect class="fil19 str0" x="8159.92" y="4913.31" width="30.42" height="28.4"/>
  <rect class="fil19 str0" x="7575.19" y="5053.87" width="30.42" height="28.4"/>
  <rect class="fil19 str0" x="8159.92" y="5053.87" width="30.42" height="28.4"/>
  <path class="fil20 str0" d="M7802.81 4343.7l0 -83.25c-38.37,16.76 -66.71,43.57 -82.14,83.25l82.14 0z"/>
  <path class="fil21 str0" d="M7802.81 4777.62l0 83.25c-38.37,-16.76 -66.71,-43.57 -82.14,-83.25l82.14 0z"/>
  <polygon class="fil1" points="8017.13,5053.87 7757.84,5053.87 7757.84,5614.79 8017.13,5874.08 "/>
  <rect class="fil22 str0" x="6876.78" y="4193.09" width="404.81" height="59.42"/>
  <rect class="fil19 str0" x="7199.94" y="4218.74" width="34.4" height="13.89"/>
  <rect class="fil5 str0" x="7551.46" y="4056.96" width="672.04" height="112.16"/>
  <rect class="fil19 str0" x="7575.19" y="4028.56" width="30.42" height="28.4"/>
  <rect class="fil19 str0" x="8159.92" y="4028.56" width="30.42" height="28.4"/>
  <rect class="fil19 str0" x="7575.19" y="4169.12" width="30.42" height="28.4"/>
  <rect class="fil19 str0" x="8159.92" y="4169.12" width="30.42" height="28.4"/>
  <rect class="fil5 str0" x="4199.26" y="4941.71" width="672.04" height="112.16"/>
  <rect class="fil6 str0" x="4252.16" y="4424.4" width="165.37" height="300.3"/>
  <rect class="fil7 str0" x="3230.89" y="4311.93" width="955.15" height="523.88"/>
  <rect class="fil8" x="3524.59" y="4252.51" width="404.81" height="85.98"/>
  <path class="fil9 str0" d="M3230.9 4311.93c-127.51,0.13 -209.81,38.24 -259.34,103.83 -75.11,99.49 -64.43,224.56 10.52,321.08 52.34,67.4 134.47,101.31 248.82,98.97l0 -523.88z"/>
  <rect class="fil10 str0" x="3294.38" y="4431" width="844.03" height="267.24"/>
  <rect class="fil23 str0" x="4186.05" y="4343.7" width="264.56" height="80.7"/>
  <rect class="fil12 str0" x="4186.05" y="4520.97" width="264.56" height="47.63"/>
  <rect class="fil13 str0" x="4186.05" y="4724.7" width="264.56" height="52.92"/>
  <rect class="fil14 str0" x="4186.05" y="4424.4" width="66.12" height="96.57"/>
  <rect class="fil14 str0" x="4196.6" y="4568.6" width="56.89" height="156.1"/>
  <rect class="fil24 str0" x="4417.54" y="4568.6" width="33.07" height="156.1"/>
  <rect class="fil25 str0" x="4413.57" y="4424.4" width="37.04" height="96.57"/>
  <rect class="fil17 str0" x="4450.6" y="4169.11" width="230.19" height="772.59"/>
  <path class="fil18 str0" d="M4680.8 4849.11l0 -537.11c57.37,58.83 90.02,124.11 103.08,194.48 25.97,140.2 -9.32,234.61 -103.08,342.63z"/>
  <rect class="fil19 str0" x="4222.99" y="4913.31" width="30.42" height="28.4"/>
  <rect class="fil19 str0" x="4807.72" y="4913.31" width="30.42" height="28.4"/>
  <rect class="fil19 str0" x="4222.99" y="5053.87" width="30.42" height="28.4"/>
  <rect class="fil19 str0" x="4807.72" y="5053.87" width="30.42" height="28.4"/>
  <path class="fil20 str0" d="M4450.61 4343.7l0 -83.25c-38.37,16.76 -66.71,43.57 -82.14,83.25l82.14 0z"/>
  <path class="fil21 str0" d="M4450.61 4777.62l0 83.25c-38.37,-16.76 -66.71,-43.57 -82.14,-83.25l82.14 0z"/>
  <rect class="fil22 str0" x="3524.59" y="4193.09" width="404.81" height="59.42"/>
  <rect class="fil19 str0" x="3847.74" y="4218.74" width="34.4" height="13.89"/>
  <rect class="fil5 str0" x="4199.26" y="4056.96" width="672.04" height="112.16"/>
  <rect class="fil19 str0" x="4222.99" y="4028.56" width="30.42" height="28.4"/>
  <rect class="fil19 str0" x="4807.72" y="4028.56" width="30.42" height="28.4"/>
  <rect class="fil19 str0" x="4222.99" y="4169.12" width="30.42" height="28.4"/>
  <rect class="fil19 str0" x="4807.72" y="4169.12" width="30.42" height="28.4"/>
  <polygon class="fil4" points="4498.16,7491.22 1021.53,7491.22 762.24,7750.51 4508.74,7750.51 "/>
  <polygon class="fil0" points="6284.03,6918.4 6024.74,6918.4 6024.74,5875.4 6162.13,5725.83 6284.03,5872.76 "/>
  <polygon class="fil0" points="6284.03,3220.34 6151.54,3365.87 6024.74,3220.34 6024.74,2177.34 6284.03,2174.7 "/>
  <rect class="fil26" x="4508.49" y="6912.23" width="3339.06" height="1322.92"/>
  <path class="fil27" d="M5267.04 7616.61c-1.21,19.34 2.42,69.31 -28.61,69.31 -38.69,0 -40.7,-40.7 -40.7,-65.68l0 -83.83c0,-23.37 -3.63,-76.17 40.7,-76.17 27.81,0 25.79,36.27 28.21,55.62l55.61 0c0.41,-7.66 -0.4,-15.32 -1.2,-22.97 -4.03,-51.59 -32.24,-77.38 -82.62,-78.18 -90.27,0 -96.32,57.22 -98.73,134.19l0 43.13c0,80.6 6.04,139.43 98.73,139.43 62.87,0 81.41,-42.31 84.23,-97.52 0.4,-5.64 0.8,-11.69 1.21,-17.33l-56.83 0zm148.31 -42.32c0,-21.36 0,-43.12 27.81,-43.12 26.19,0 26.19,21.76 26.19,43.12l0 75.77c0,27.8 -2.01,39.89 -26.19,39.89 -25.39,0 -27.81,-12.09 -27.81,-39.89l0 -75.77zm27.81 155.97c67.7,1.2 78.98,-32.65 78.58,-111.64 -0.4,-77.78 -0.8,-127.75 -78.58,-127.75 -78.99,0 -79.8,49.97 -80.2,127.75 -0.4,78.99 11.28,112.84 80.2,111.64zm176.91 -233.34l-52.39 0 0 227.29 52.39 0 0 -147.1c-0.8,-24.18 6.05,-42.71 25.8,-41.91 19.74,0.81 22.16,15.32 22.16,37.48l0 151.53 52.39 0 0 -175.31c1.61,-40.7 -22.57,-58.03 -52.39,-58.03 -12.09,0 -35.46,3.23 -47.15,29.42l-0.81 0 0 -23.37zm246.64 152.73c0,26.2 -8.46,40.3 -25.39,40.3 -16.12,0 -21.76,-17.32 -22.97,-39.09l0 -75.76c1.61,-22.57 -0.81,-43.93 23.78,-43.93 24.58,0 25.39,32.24 24.58,50.38l0 68.1zm0 74.56l52.39 0 0 -302.25 -52.39 0 0 77.78c0,6.85 0.4,13.3 1.61,20.15l-0.8 0c-10.48,-21.76 -24.59,-29.42 -46.75,-29.02 -33.85,0.81 -53.6,18.14 -54.81,80.6l0 82.21c1.21,36.27 10.48,76.58 54.81,76.58 20.55,-1.21 35.06,-7.26 45.13,-30.23l0.81 0 0 24.18zm100.75 -89.47c-1.21,66.9 23.37,95.52 83.82,95.52 53.6,0 74.56,-32.25 72.54,-83.02l-52.39 0c0.81,28.61 -4.83,42.71 -24.18,42.71 -15.71,0 -27,-5.64 -27.4,-35.46l0 -33.05 104.78 0 0 -30.62c0,-62.07 -7.66,-99.95 -80.6,-99.95 -51.58,0 -78.99,30.63 -76.57,84.23l0 59.64zm52.39 -53.6l0 -9.26c0,-20.56 -1.21,-40.71 24.99,-40.71 20.95,0 27,7.26 27.4,30.23l0 19.74 -52.39 0zm204.72 -84.22l-52.39 0 0 227.29 52.39 0 0 -147.1c-0.8,-24.18 6.05,-42.71 25.8,-41.91 19.74,0.81 22.16,15.32 22.16,37.48l0 151.53 52.39 0 0 -175.31c1.61,-40.7 -22.57,-58.03 -52.39,-58.03 -12.09,0 -35.46,3.23 -47.15,29.42l-0.81 0 0 -23.37zm136.22 152.33c-6.05,69.32 45.94,81.01 73.75,81.01 72.54,0 82.21,-41.11 77.78,-80.61 -1.62,-15.31 -22.57,-37.07 -35.87,-44.73l-42.72 -29.01c-10.07,-6.86 -19.75,-12.9 -19.75,-26.2 0,-12.9 9.68,-18.54 22.17,-18.54 18.13,0 25.39,9.67 24.18,35.06l52.39 0c1.21,-48.76 -22.17,-75.36 -72.94,-75.36 -50.38,0 -78.19,20.15 -78.19,55.21 0,32.65 16.93,53.6 43.12,71.74l28.62 19.74c10.07,6.86 24.98,14.11 25.79,27.01 3.63,14.5 -6.85,25.38 -21.76,25.38 -12.09,0 -28.21,1.21 -24.18,-40.7l-52.39 0zm344.56 74.96c-2.82,-10.48 -4.43,-20.96 -4.43,-31.84l0 -134.2c0.8,-29.82 -3.63,-67.3 -74.96,-67.3 -65.69,0 -79.79,30.23 -79.39,73.35l49.97 0c-0.4,-20.55 3.63,-33.05 27.4,-33.05 14.11,0 22.17,1.61 24.59,11.69 4.43,18.54 -3.63,28.61 -25.79,37.88 -41.11,16.93 -77.78,29.42 -77.78,81.41 0,46.75 18.53,68.11 60.85,68.11 8.87,0 17.33,-2.83 24.99,-7.66 8.06,-4.84 14.91,-12.5 20.95,-21.76l0.81 0c-0.81,8.06 -0.41,16.12 3.22,23.37l49.57 0zm-56.82 -95.11c-1.21,21.76 4.43,60.85 -26.6,60.85 -19.34,0 -24.58,-11.68 -24.58,-29.01 0,-9.67 1.21,-20.96 8.86,-27.41 13.7,-11.28 29.42,-20.15 42.32,-29.01l0 24.58zm203.11 20.55c0,26.2 -8.46,40.3 -25.39,40.3 -16.12,0 -21.76,-17.32 -22.97,-39.09l0 -75.76c1.61,-22.57 -0.81,-43.93 23.78,-43.93 24.58,0 25.39,32.24 24.58,50.38l0 68.1zm0 74.56l52.39 0 0 -302.25 -52.39 0 0 77.78c0,6.85 0.4,13.3 1.61,20.15l-0.8 0c-10.48,-21.76 -24.59,-29.42 -46.75,-29.02 -33.85,0.81 -53.6,18.14 -54.81,80.6l0 82.21c1.21,36.27 10.48,76.58 54.81,76.58 20.55,-1.21 35.06,-7.26 45.13,-30.23l0.81 0 0 24.18zm153.14 -149.92c0,-21.36 0,-43.12 27.81,-43.12 26.19,0 26.19,21.76 26.19,43.12l0 75.77c0,27.8 -2.01,39.89 -26.19,39.89 -25.39,0 -27.81,-12.09 -27.81,-39.89l0 -75.77zm27.81 155.97c67.7,1.2 78.98,-32.65 78.58,-111.64 -0.4,-77.78 -0.8,-127.75 -78.58,-127.75 -78.99,0 -79.8,49.97 -80.2,127.75 -0.4,78.99 11.28,112.84 80.2,111.64zm174.5 -233.34l-50.38 0 0 227.29 52.39 0 0 -131.38c0.81,-33.45 22.97,-40.7 51.99,-37.88l0 -62.06c-7.66,0.4 -17.73,-0.41 -32.65,12.09 -7.65,6.45 -14.1,15.71 -20.55,32.24l-0.8 0 0 -40.3z"/>
  <polygon class="fil28 str0" points="2116.52,1038.44 3434.14,1038.44 3434.14,884.98 2116.52,884.98 2116.52,765.91 1946.95,863.81 1777.38,961.71 1946.95,1059.61 2116.52,1157.51 "/>
  <polygon class="fil28 str0" points="3144.15,7009.42 1826.53,7009.42 1826.53,7162.88 3144.15,7162.88 3144.15,7281.95 3313.72,7184.05 3483.29,7086.15 3313.72,6988.25 3144.15,6890.35 "/>
  <polygon class="fil28 str0" points="1575.41,4950.96 1575.41,3633.34 1421.95,3633.34 1421.95,4950.96 1302.88,4950.96 1400.78,5120.53 1498.68,5290.1 1596.58,5120.53 1694.48,4950.96 "/>
  <polyline class="fil29 str1" points="7847.55,6912.23 4508.49,6912.23 4508.49,8235.15 "/>
  <polyline class="fil29 str2" points="4483.52,8235.15 7847.55,8235.15 7847.55,6883.13 "/>
  <rect class="fil26" x="4508.49" y="847.53" width="3339.06" height="1322.92"/>
  <path class="fil27" d="M5267.04 1551.91c-1.21,19.34 2.42,69.31 -28.61,69.31 -38.69,0 -40.7,-40.7 -40.7,-65.68l0 -83.83c0,-23.37 -3.63,-76.17 40.7,-76.17 27.81,0 25.79,36.27 28.21,55.62l55.61 0c0.41,-7.66 -0.4,-15.32 -1.2,-22.97 -4.03,-51.59 -32.24,-77.38 -82.62,-78.18 -90.27,0 -96.32,57.22 -98.73,134.19l0 43.13c0,80.6 6.04,139.43 98.73,139.43 62.87,0 81.41,-42.31 84.23,-97.52 0.4,-5.64 0.8,-11.69 1.21,-17.33l-56.83 0zm148.31 -42.32c0,-21.36 0,-43.12 27.81,-43.12 26.19,0 26.19,21.76 26.19,43.12l0 75.77c0,27.8 -2.01,39.89 -26.19,39.89 -25.39,0 -27.81,-12.09 -27.81,-39.89l0 -75.77zm27.81 155.97c67.7,1.2 78.98,-32.65 78.58,-111.64 -0.4,-77.78 -0.8,-127.75 -78.58,-127.75 -78.99,0 -79.8,49.97 -80.2,127.75 -0.4,78.99 11.28,112.84 80.2,111.64zm178.93 -233.34l-52.39 0 0 227.29 52.39 0 0 -149.51c0,-24.99 1.21,-43.12 25.79,-43.53 24.18,-0.4 25.79,16.53 25.79,36.68l0 156.36 52.39 0 0 -149.51c0,-26.6 4.03,-42.32 26.6,-43.53 22.97,-1.21 24.99,18.94 24.99,39.5l0 153.54 52.39 0 0 -184.98c0,-24.18 -16.93,-48.36 -55.62,-48.36 -25.79,0 -42.31,9.67 -52.39,29.42l-0.8 0c-3.23,-21.36 -29.02,-29.82 -48.36,-29.42 -16.93,0.81 -38.29,4.44 -49.98,29.42l-0.8 0 0 -23.37zm310.3 84.63c-0.8,-18.14 0,-50.38 24.59,-50.38 24.58,0 22.16,21.36 23.77,43.93l0 75.76c-1.2,21.77 -6.85,39.09 -22.97,39.09 -16.92,0 -25.39,-14.1 -25.39,-40.3l0 -68.1zm0 -84.63l-52.39 0 0 303.46 49.98 0 0 -99.54 0.8 0c12.9,22.97 27.41,28.21 47.96,29.42 44.33,0 53.2,-39.5 54.4,-75.77l0 -82.21c-1.2,-62.47 -20.55,-80.6 -54.4,-81.41 -21.76,-0.4 -35.87,7.66 -45.54,29.82l-0.81 0 0 -23.77zm200.3 0l-50.38 0 0 227.29 52.39 0 0 -131.38c0.81,-33.45 22.97,-40.7 51.99,-37.88l0 -62.06c-7.66,0.4 -17.73,-0.41 -32.65,12.09 -7.65,6.45 -14.1,15.71 -20.55,32.24l-0.8 0 0 -40.3zm81 137.82c-1.21,66.9 23.37,95.52 83.82,95.52 53.6,0 74.56,-32.25 72.54,-83.02l-52.39 0c0.81,28.61 -4.83,42.71 -24.18,42.71 -15.71,0 -27,-5.64 -27.4,-35.46l0 -33.05 104.78 0 0 -30.62c0,-62.07 -7.66,-99.95 -80.6,-99.95 -51.58,0 -78.99,30.63 -76.57,84.23l0 59.64zm52.39 -53.6l0 -9.26c0,-20.56 -1.21,-40.71 24.99,-40.71 20.95,0 27,7.26 27.4,30.23l0 19.74 -52.39 0zm139.44 68.11c-6.05,69.32 45.94,81.01 73.75,81.01 72.54,0 82.21,-41.11 77.78,-80.61 -1.62,-15.31 -22.57,-37.07 -35.87,-44.73l-42.72 -29.01c-10.07,-6.86 -19.75,-12.9 -19.75,-26.2 0,-12.9 9.68,-18.54 22.17,-18.54 18.13,0 25.39,9.67 24.18,35.06l52.39 0c1.21,-48.76 -22.17,-75.36 -72.94,-75.36 -50.38,0 -78.19,20.15 -78.19,55.21 0,32.65 16.93,53.6 43.12,71.74l28.62 19.74c10.07,6.86 24.98,14.11 25.79,27.01 3.63,14.5 -6.85,25.38 -21.76,25.38 -12.09,0 -28.21,1.21 -24.18,-40.7l-52.39 0zm178.93 0c-6.05,69.32 45.94,81.01 73.75,81.01 72.54,0 82.21,-41.11 77.78,-80.61 -1.62,-15.31 -22.57,-37.07 -35.87,-44.73l-42.72 -29.01c-10.07,-6.86 -19.75,-12.9 -19.75,-26.2 0,-12.9 9.68,-18.54 22.17,-18.54 18.13,0 25.39,9.67 24.18,35.06l52.39 0c1.21,-48.76 -22.17,-75.36 -72.94,-75.36 -50.38,0 -78.19,20.15 -78.19,55.21 0,32.65 16.93,53.6 43.12,71.74l28.62 19.74c10.07,6.86 24.98,14.11 25.79,27.01 3.63,14.5 -6.85,25.38 -21.76,25.38 -12.09,0 -28.21,1.21 -24.18,-40.7l-52.39 0zm240.99 -74.96c0,-21.36 0,-43.12 27.81,-43.12 26.19,0 26.19,21.76 26.19,43.12l0 75.77c0,27.8 -2.01,39.89 -26.19,39.89 -25.39,0 -27.81,-12.09 -27.81,-39.89l0 -75.77zm27.81 155.97c67.7,1.2 78.98,-32.65 78.58,-111.64 -0.4,-77.78 -0.8,-127.75 -78.58,-127.75 -78.99,0 -79.8,49.97 -80.2,127.75 -0.4,78.99 11.28,112.84 80.2,111.64zm174.5 -233.34l-50.38 0 0 227.29 52.39 0 0 -131.38c0.81,-33.45 22.97,-40.7 51.99,-37.88l0 -62.06c-7.66,0.4 -17.73,-0.41 -32.65,12.09 -7.65,6.45 -14.1,15.71 -20.55,32.24l-0.8 0 0 -40.3z"/>
  <polyline class="fil29 str1" points="7847.55,847.53 4508.49,847.53 4508.49,2170.45 "/>
  <polyline class="fil29 str2" points="4483.52,2170.45 7847.55,2170.45 7847.55,818.43 "/>
 </g>
</svg>
