<?xml version="1.0" encoding="iso-8859-1"?>
<!-- Generator: Adobe Illustrator 19.0.0, SVG Export Plug-In . SVG Version: 6.00 Build 0)  -->
<svg version="1.1" id="Layer_1" xmlns="http://www.w3.org/2000/svg" xmlns:xlink="http://www.w3.org/1999/xlink" x="0px" y="0px"
	 viewBox="0 0 512 512" style="enable-background:new 0 0 512 512;" xml:space="preserve">
<g>
	<g>
		<path d="M400.377,167.607v-42.933c0-8.656-7.018-15.673-15.673-15.673h-34.691v-7.811c0-8.656-7.018-15.673-15.673-15.673H177.661
			c-8.656,0-15.673,7.018-15.673,15.673v65.069h-15.984V42.788c0-8.656-7.018-15.673-15.673-15.673H67.275
			c-8.656,0-15.673,7.018-15.673,15.673s7.018,15.673,15.673,15.673h47.383v108.73C50.601,174.822,0,229.318,0,296.586
			c0,49.392,27.433,93.738,70.763,115.931c0.687,40.019,33.433,72.368,73.612,72.368c35.222,0,64.732-24.87,71.936-57.971h100.554
			l29.877,50.296c2.824,4.754,7.945,7.669,13.475,7.669h26.848c8.656,0,15.673-7.018,15.673-15.673v-43.985
			C463.726,415.362,512,362.392,512,296.586C512,231.074,463.409,176.706,400.377,167.607z M350.013,140.348h19.017v25.909h-19.017
			V140.348z M193.334,116.864h125.33c0,6.464,0,42.306,0,49.393h-125.33V116.864z M144.376,453.537
			c-23.323,0-42.297-18.974-42.297-42.297c0-23.683,19.485-42.285,42.297-42.285c23.316,0,42.285,18.969,42.285,42.285
			C186.661,434.563,167.691,453.537,144.376,453.537z M371.391,453.532h-2.254l-15.811-26.619h18.065V453.532z M381.672,395.566
			H216.328c-7.298-33.511-37.187-57.958-71.953-57.958c-28.7,0-54.803,16.681-66.856,42.743
			c-28.506-17.899-46.173-49.21-46.173-83.764c0-54.69,44.258-98.98,98.981-98.98h251.345c54.578,0,98.981,44.402,98.981,98.98
			C480.653,351.277,436.395,395.566,381.672,395.566z"/>
	</g>
</g>
<g>
	<g>
		<path d="M313.593,246.364H198.407c-8.656,0-15.674,7.018-15.674,15.673c0,8.656,7.018,15.673,15.674,15.673h115.185
			c8.656,0,15.673-7.018,15.673-15.673S322.249,246.364,313.593,246.364z"/>
	</g>
</g>
<g>
</g>
<g>
</g>
<g>
</g>
<g>
</g>
<g>
</g>
<g>
</g>
<g>
</g>
<g>
</g>
<g>
</g>
<g>
</g>
<g>
</g>
<g>
</g>
<g>
</g>
<g>
</g>
<g>
</g>
</svg>
