<?xml version="1.0" encoding="UTF-8"?>
<!DOCTYPE svg PUBLIC "-//W3C//DTD SVG 1.1//EN" "http://www.w3.org/Graphics/SVG/1.1/DTD/svg11.dtd">
<!-- Creator: CorelDRAW 2019 (64 Bit) -->
<svg xmlns="http://www.w3.org/2000/svg" xml:space="preserve" width="7mm" height="7mm" version="1.1" style="shape-rendering:geometricPrecision; text-rendering:geometricPrecision; image-rendering:optimizeQuality; fill-rule:evenodd; clip-rule:evenodd"
viewBox="0 0 700 700"
 xmlns:xlink="http://www.w3.org/1999/xlink"
 xmlns:xodm="http://www.corel.com/coreldraw/odm/2003">
 <defs>
  <style type="text/css">
   <![CDATA[
    .str5 {stroke:black;stroke-width:4.55;stroke-miterlimit:22.9256}
    .str3 {stroke:black;stroke-width:4.55;stroke-miterlimit:22.9256}
    .str0 {stroke:black;stroke-width:4.55;stroke-miterlimit:22.9256}
    .str8 {stroke:black;stroke-width:4.55;stroke-miterlimit:22.9256}
    .str2 {stroke:black;stroke-width:4.55;stroke-miterlimit:22.9256}
    .str1 {stroke:black;stroke-width:4.55;stroke-miterlimit:22.9256}
    .str4 {stroke:black;stroke-width:4.55;stroke-miterlimit:22.9256}
    .str7 {stroke:black;stroke-width:4.55;stroke-miterlimit:22.9256}
    .str6 {stroke:black;stroke-width:4.55;stroke-miterlimit:22.9256}
    .fil0 {fill:#C5C4C3}
   ]]>
  </style>
 </defs>
 <g id="Camada_x0020_1">
  <metadata id="CorelCorpID_0Corel-Layer"/>
  <g id="_1546139207264">
   <g>
    <path class="fil0 str0" d="M320.32 277.45c19.49,36.44 44.98,39.95 76.85,15.86 41.71,-56.93 76.46,-167.6 30.96,-254.58 -45.9,-17.59 -97.49,-22.07 -154.92,-13.07 42.06,62.05 53.25,176.14 47.11,251.79z"/>
    <path class="fil0 str1" d="M387.21 286.04c-6.11,37.1 10.05,57.48 38.5,68.37 70.33,-5.92 176.62,-52.37 212.36,-143.79 -16.87,-46.17 -47.37,-88.02 -91.86,-125.43 -19.19,72.46 -97.9,155.81 -159,200.85z"/>
    <path class="fil0 str2" d="M424.2 339.58c-74.53,19.58 -42.05,51.43 -23.92,74.72 52.18,47.52 158.54,93.83 249.85,57.83 22.36,-43.78 32.3,-94.6 29.45,-152.66 -66.17,35.23 -180.8,34.24 -255.38,20.11z"/>
    <path class="fil0 str3" d="M414.53 396.38c-47.49,-25.02 -68.23,-9.76 -67.41,40.15 7.63,70.16 56.66,175.29 148.92,208.79 45.75,-17.99 86.85,-49.49 123.17,-94.89 -72.92,-17.41 -158.16,-94.08 -204.68,-154.05z"/>
    <path class="fil0 str4" d="M364.3 434.1c-25.97,-49.19 -50.64,-54.99 -75.92,-19.82 -44.61,54.69 -85.05,163.41 -44.13,252.63 44.93,19.95 96.23,27.1 154.05,21.08 -38.79,-64.14 -44.05,-178.66 -34,-253.89z"/>
    <path class="fil0 str5" d="M305.07 426.47c9.18,-38.07 21.51,-72.95 -41.94,-66.31 -69.94,9.51 -173.72,61.34 -204.72,154.47 19.21,45.25 51.8,85.49 98.15,120.57 15.46,-73.35 89.81,-160.61 148.51,-208.73z"/>
    <path class="fil0 str6" d="M264.59 371.39c71.61,2 120.7,-2.85 23.41,-74.89 -52.51,-47.16 -159.19,-92.73 -250.25,-56.09 -22.05,43.92 -31.64,94.81 -28.39,152.86 65.92,-35.69 180.57,-35.5 255.23,-21.88z"/>
    <path class="fil0 str7" d="M287.25 295.83c33.86,6.19 41.7,6.49 55.44,-21.98 -6.67,-70.26 -54.25,-176.05 -146.04,-210.81 -45.99,17.35 -87.52,48.29 -124.45,93.18 46.98,11.91 98.79,48.66 141.87,89.53 26.86,16.77 47.96,30.65 73.18,50.08z"/>
   </g>
   <circle class="fil0 str8" transform="matrix(-0.0758552 -0.0141631 -0.0141631 0.0758552 344.34 355.206)" r="1141.99"/>
  </g>
 </g>
</svg>
