<?xml version="1.0" encoding="UTF-8"?>
<!DOCTYPE svg PUBLIC "-//W3C//DTD SVG 1.1//EN" "http://www.w3.org/Graphics/SVG/1.1/DTD/svg11.dtd">
<!-- Creator: CorelDRAW 2019 (64 Bit) -->
<svg xmlns="http://www.w3.org/2000/svg" xml:space="preserve" width="7mm" height="7mm" version="1.1" style="shape-rendering:geometricPrecision; text-rendering:geometricPrecision; image-rendering:optimizeQuality; fill-rule:evenodd; clip-rule:evenodd"
viewBox="0 0 700 700"
 xmlns:xlink="http://www.w3.org/1999/xlink"
 xmlns:xodm="http://www.corel.com/coreldraw/odm/2003">
 <defs>
  <style type="text/css">
   <![CDATA[
    .str5 {stroke:black;stroke-width:4.55;stroke-miterlimit:22.9256}
    .str3 {stroke:black;stroke-width:4.55;stroke-miterlimit:22.9256}
    .str0 {stroke:black;stroke-width:4.55;stroke-miterlimit:22.9256}
    .str8 {stroke:black;stroke-width:4.55;stroke-miterlimit:22.9256}
    .str2 {stroke:black;stroke-width:4.55;stroke-miterlimit:22.9256}
    .str1 {stroke:black;stroke-width:4.55;stroke-miterlimit:22.9256}
    .str4 {stroke:black;stroke-width:4.55;stroke-miterlimit:22.9256}
    .str7 {stroke:black;stroke-width:4.55;stroke-miterlimit:22.9256}
    .str6 {stroke:black;stroke-width:4.55;stroke-miterlimit:22.9256}
    .fil0 {fill:#0AF70C}
    .fil1 {fill:#0AF70C}
   ]]>
  </style>
 </defs>
 <g id="Camada_x0020_1">
  <metadata id="CorelCorpID_0Corel-Layer"/>
  <g id="_1544182131808">
   <g>
    <path class="fil0 str0" d="M318.79 272.38c19.49,36.43 44.98,39.94 76.85,15.86 41.71,-56.93 76.46,-167.6 30.96,-254.58 -45.9,-17.59 -97.49,-22.08 -154.92,-13.07 42.06,62.04 53.25,176.14 47.11,251.79z"/>
    <path class="fil0 str1" d="M385.68 280.97c-6.11,37.1 10.04,57.48 38.5,68.37 70.33,-5.92 176.62,-52.37 212.35,-143.79 -16.87,-46.17 -47.36,-88.03 -91.86,-125.44 -19.18,72.47 -97.89,155.82 -158.99,200.86z"/>
    <path class="fil0 str2" d="M422.67 334.51c-74.53,19.58 -42.05,51.42 -23.92,74.72 52.18,47.52 158.53,93.83 249.85,57.83 22.36,-43.78 32.3,-94.6 29.45,-152.66 -66.17,35.23 -180.81,34.24 -255.38,20.11z"/>
    <path class="fil0 str3" d="M413 391.3c-47.49,-25.01 -68.23,-9.75 -67.41,40.15 7.63,70.17 56.66,175.29 148.92,208.8 45.74,-17.99 86.85,-49.5 123.16,-94.89 -72.91,-17.42 -158.15,-94.08 -204.67,-154.06z"/>
    <path class="fil0 str4" d="M362.77 429.02c-25.97,-49.18 -50.64,-54.98 -75.92,-19.82 -44.61,54.7 -85.05,163.42 -44.13,252.64 44.93,19.94 96.22,27.09 154.04,21.08 -38.79,-64.14 -44.04,-178.66 -33.99,-253.9z"/>
    <path class="fil0 str5" d="M303.53 421.4c9.19,-38.07 21.52,-72.95 -41.93,-66.31 -69.94,9.51 -173.72,61.34 -204.73,154.47 19.21,45.25 51.8,85.48 98.16,120.57 15.46,-73.35 89.8,-160.62 148.5,-208.73z"/>
    <path class="fil0 str6" d="M263.06 366.32c71.61,2 120.7,-2.85 23.41,-74.89 -52.51,-47.16 -159.19,-92.73 -250.25,-56.09 -22.05,43.92 -31.64,94.81 -28.39,152.85 65.92,-35.69 180.56,-35.49 255.23,-21.87z"/>
    <path class="fil0 str7" d="M285.72 290.76c33.86,6.19 41.69,6.48 55.43,-21.98 -6.66,-70.26 -54.24,-176.06 -146.04,-210.82 -45.98,17.36 -87.52,48.29 -124.45,93.19 46.98,11.91 98.79,48.66 141.88,89.52 26.86,16.77 47.96,30.65 73.18,50.09z"/>
   </g>
   <circle class="fil1 str8" transform="matrix(-0.0758552 -0.0141631 -0.0141631 0.0758552 342.808 350.133)" r="1141.99"/>
  </g>
 </g>
</svg>
