<?xml version="1.0" encoding="UTF-8"?>
<!DOCTYPE svg PUBLIC "-//W3C//DTD SVG 1.1//EN" "http://www.w3.org/Graphics/SVG/1.1/DTD/svg11.dtd">
<!-- Creator: CorelDRAW 2019 (64 Bit) -->
<svg xmlns="http://www.w3.org/2000/svg" xml:space="preserve" width="373.333mm" height="210mm" version="1.1" style="shape-rendering:geometricPrecision; text-rendering:geometricPrecision; image-rendering:optimizeQuality; fill-rule:evenodd; clip-rule:evenodd"
viewBox="0 0 37333.3 21000"
 xmlns:xlink="http://www.w3.org/1999/xlink"
 xmlns:xodm="http://www.corel.com/coreldraw/odm/2003">
 <defs>
  <style type="text/css">
   <![CDATA[
    .fil0 {fill:#38388C}
    .fil2 {fill:white}
    .fil1 {fill:white;fill-rule:nonzero}
   ]]>
  </style>
 </defs>
 <g id="Camada_x0020_1">
  <metadata id="CorelCorpID_0Corel-Layer"/>
  <rect class="fil0" x="3708.03" y="1208.72" width="29912.52" height="1308.67"/>
  <path class="fil1" d="M12867.02 1955.7c0,51.86 -19.85,90.85 -59.55,116.73 -32.61,21.27 -74.2,31.9 -124.77,31.9 -61.44,0 -108.7,-16.07 -141.78,-48.21 -30.24,-29.3 -45.37,-68.52 -45.37,-117.67l46.79 0c3.78,42.53 18.43,73.96 43.95,94.28 25.52,20.32 59.79,30.48 102.79,30.48 43.95,0 77.27,-10.87 99.96,-32.61 19.85,-18.78 29.77,-42.18 29.77,-70.06 0,-20.79 -4.61,-37.57 -13.82,-50.57 -9.22,-12.99 -22.57,-23.98 -40.06,-32.96 -9.92,-5.2 -48.44,-16.31 -115.55,-33.2 -30.24,-7.56 -54.11,-15.83 -71.59,-24.81 -20.33,-10.4 -36.16,-23.16 -47.5,-38.28 -15.12,-20.68 -22.69,-46.67 -22.69,-77.86 0,-37.69 14.65,-69.12 43.96,-94.05 31.66,-27.41 74.67,-41.12 129.02,-41.12 54.34,0 97.11,14.77 128.31,44.43 28.83,27.29 43.24,63.09 43.24,107.28l-45.37 0c0,-37.1 -13,-65.46 -39.11,-85.19 -22.21,-16.9 -50.68,-25.4 -85.3,-25.4 -38.87,0 -69.83,8.62 -92.75,25.87 -23.04,17.13 -34.5,41.12 -34.5,71.84 0,18.43 4.02,33.32 12.05,44.9 8.04,11.57 21.03,21.85 38.99,30.83 63.8,19.38 127.6,38.4 191.4,57.3 46.32,23.16 69.48,61.8 69.48,116.15z"/>
  <polygon id="1" class="fil1" points="13119.39,2090.86 13071.18,2090.86 13071.18,1580.45 13119.39,1580.45 "/>
  <path id="2" class="fil1" d="M13694.31 1955.7c0,51.86 -19.85,90.85 -59.55,116.73 -32.61,21.27 -74.2,31.9 -124.77,31.9 -61.44,0 -108.7,-16.07 -141.78,-48.21 -30.24,-29.3 -45.37,-68.52 -45.37,-117.67l46.79 0c3.78,42.53 18.43,73.96 43.95,94.28 25.52,20.32 59.79,30.48 102.79,30.48 43.95,0 77.27,-10.87 99.96,-32.61 19.85,-18.78 29.77,-42.18 29.77,-70.06 0,-20.79 -4.61,-37.57 -13.82,-50.57 -9.22,-12.99 -22.57,-23.98 -40.06,-32.96 -9.92,-5.2 -48.44,-16.31 -115.55,-33.2 -30.24,-7.56 -54.11,-15.83 -71.59,-24.81 -20.33,-10.4 -36.16,-23.16 -47.5,-38.28 -15.12,-20.68 -22.69,-46.67 -22.69,-77.86 0,-37.69 14.65,-69.12 43.96,-94.05 31.66,-27.41 74.67,-41.12 129.02,-41.12 54.34,0 97.11,14.77 128.31,44.43 28.83,27.29 43.24,63.09 43.24,107.28l-45.37 0c0,-37.1 -13,-65.46 -39.11,-85.19 -22.21,-16.9 -50.68,-25.4 -85.3,-25.4 -38.87,0 -69.83,8.62 -92.75,25.87 -23.04,17.13 -34.5,41.12 -34.5,71.84 0,18.43 4.02,33.32 12.05,44.9 8.04,11.57 21.03,21.85 38.99,30.83 63.8,19.38 127.6,38.4 191.4,57.3 46.32,23.16 69.48,61.8 69.48,116.15z"/>
  <polygon id="3" class="fil1" points="14206.85,1621.57 14045.22,1621.57 14045.22,2090.86 13997.01,2090.86 13997.01,1621.57 13835.38,1621.57 13835.38,1580.45 14206.85,1580.45 "/>
  <polygon id="4" class="fil1" points="14720.8,2090.86 14374.15,2090.86 14374.15,1580.45 14713.71,1580.45 14713.71,1621.57 14422.36,1621.57 14422.36,1805.88 14685.36,1805.88 14685.36,1847 14422.36,1847 14422.36,2049.74 14720.8,2049.74 "/>
  <polygon id="5" class="fil1" points="15383.63,2090.86 15335.42,2090.86 15335.42,1635.75 15166.71,2090.86 15121.34,2090.86 14953.33,1635.75 14951.91,2090.86 14903.7,2090.86 14903.7,1580.45 14977.55,1580.45 15144.85,2031.55 15310.61,1580.45 15383.63,1580.45 "/>
  <path id="6" class="fil1" d="M15998.95 2090.86l-49.38 -0.12 -59.08 -160.09 -232.99 0 -59.9 160.21 -49.51 0 200.62 -510.41 54.59 0 195.65 510.41zm-124.29 -201.33l-100.31 -267.73 -99.84 267.73 200.15 0z"/>
  <path id="7" class="fil1" d="M16878.7 1834.95c0,88.37 -22.92,155.48 -68.76,201.32 -18.43,18.44 -41.23,32.14 -68.41,41.12 -27.17,8.98 -61.32,13.47 -102.43,13.47l-177.23 0 0 -510.41 182.19 0c38.75,0 71.6,4.14 98.54,12.41 26.93,8.27 50.8,22.8 71.59,43.6 19.38,19.37 34.98,47.26 46.79,83.65 11.82,36.39 17.72,74.67 17.72,114.84zm-48.2 0c0,-38.76 -4.49,-72.19 -13.47,-100.31 -8.98,-28.12 -22.09,-50.81 -39.34,-68.06 -17.25,-17.25 -37.22,-29.06 -59.91,-35.44 -22.68,-6.38 -52.69,-9.57 -90.03,-9.57l-117.67 0 0 428.17 124.76 0c33.08,0 61.2,-3.9 84.36,-11.69 23.16,-7.8 42.06,-19.03 56.71,-33.68 18.91,-18.9 32.73,-42.65 41.47,-71.24 8.75,-28.59 13.12,-61.32 13.12,-98.18z"/>
  <polygon id="8" class="fil1" points="17418.89,2090.86 17072.24,2090.86 17072.24,1580.45 17411.8,1580.45 17411.8,1621.57 17120.45,1621.57 17120.45,1805.88 17383.45,1805.88 17383.45,1847 17120.45,1847 17120.45,2049.74 17418.89,2049.74 "/>
  <path id="9" class="fil1" d="M18275.96 2090.86l-53.17 0c-5.67,-10.4 -10.04,-26.23 -13.12,-47.5 -3.07,-21.26 -4.6,-43 -4.6,-65.22 0,-40.64 -4.26,-68.29 -12.76,-82.94 -14.18,-24.1 -43.72,-36.15 -88.62,-36.15l-156.66 0 0 231.81 -48.21 0 0 -510.41 199.91 0c56.24,0 98.54,9.93 126.89,29.78 31.2,22.21 46.79,56.94 46.79,104.2 0,34.03 -7.09,60.73 -21.26,80.11 -12.29,17.01 -32.85,31.9 -61.68,44.66 23.63,8.51 40.41,23.28 50.33,44.31 9.93,21.03 14.89,51.63 14.89,91.8 0,29.77 1.42,54.35 4.25,73.72 2.84,19.38 8.51,31.67 17.02,36.87l0 4.96zm-51.75 -374.3c0,-28.83 -8.04,-50.8 -24.11,-65.93 -20.32,-19.37 -53.16,-29.06 -98.53,-29.06l-154.54 0 0 196.36 152.41 0c38.28,0 68.65,-8.86 91.09,-26.58 22.45,-17.72 33.68,-42.65 33.68,-74.79z"/>
  <polygon id="10" class="fil1" points="18817.56,2090.86 18470.91,2090.86 18470.91,1580.45 18810.47,1580.45 18810.47,1621.57 18519.12,1621.57 18519.12,1805.88 18782.12,1805.88 18782.12,1847 18519.12,1847 18519.12,2049.74 18817.56,2049.74 "/>
  <polygon id="11" class="fil1" points="19326.56,1621.57 19045.83,1621.57 19045.83,1805.88 19301.04,1805.88 19301.04,1847 19045.83,1847 19045.83,2090.86 18997.63,2090.86 18997.63,1580.45 19326.56,1580.45 "/>
  <path id="12" class="fil1" d="M19871.71 2090.86l-53.17 0c-5.67,-10.4 -10.04,-26.23 -13.12,-47.5 -3.07,-21.26 -4.6,-43 -4.6,-65.22 0,-40.64 -4.26,-68.29 -12.76,-82.94 -14.18,-24.1 -43.72,-36.15 -88.62,-36.15l-156.66 0 0 231.81 -48.21 0 0 -510.41 199.91 0c56.24,0 98.54,9.93 126.89,29.78 31.2,22.21 46.79,56.94 46.79,104.2 0,34.03 -7.09,60.73 -21.26,80.11 -12.29,17.01 -32.85,31.9 -61.68,44.66 23.63,8.51 40.41,23.28 50.33,44.31 9.93,21.03 14.89,51.63 14.89,91.8 0,29.77 1.42,54.35 4.25,73.72 2.84,19.38 8.51,31.67 17.02,36.87l0 4.96zm-51.75 -374.3c0,-28.83 -8.04,-50.8 -24.11,-65.93 -20.32,-19.37 -53.16,-29.06 -98.53,-29.06l-154.54 0 0 196.36 152.41 0c38.28,0 68.65,-8.86 91.09,-26.58 22.45,-17.72 33.68,-42.65 33.68,-74.79z"/>
  <polygon id="13" class="fil1" points="20131.88,2090.86 20083.67,2090.86 20083.67,1580.45 20131.88,1580.45 "/>
  <path id="14" class="fil1" d="M20797.54 2090.86l-41.12 0 0 -87.19c-18.9,33.08 -43.83,58.13 -74.79,75.14 -30.95,17.01 -68.88,25.52 -113.78,25.52 -74.2,0 -131.14,-25.99 -170.84,-77.86 -36.39,-47.73 -54.59,-111.89 -54.59,-192.59 0,-81.17 20.09,-145.32 60.26,-192.58 42.06,-49.03 100.19,-73.61 174.39,-73.61 56.24,0 103.38,13.47 141.42,40.53 38.05,27.05 62.5,67.22 73.37,120.39l-49.62 0c-8.51,-37.57 -27.76,-66.99 -57.77,-88.14 -30.01,-21.15 -64.4,-31.66 -103.15,-31.66 -63.8,0 -112.01,22.21 -144.61,66.52 -30.72,41.59 -46.08,100.07 -46.08,175.57 0,59.9 16.3,109.64 49.03,149.34 34.5,41.94 79.99,62.97 136.34,62.97 49.75,0 90.74,-15.59 122.88,-46.78 17.01,-17.02 30.25,-37.81 39.46,-62.39 9.22,-24.57 13.83,-53.17 13.83,-85.77l-172.98 0 0 -41.12 218.35 0 0 263.71z"/>
  <polygon id="15" class="fil1" points="21358.98,2090.86 21012.33,2090.86 21012.33,1580.45 21351.89,1580.45 21351.89,1621.57 21060.54,1621.57 21060.54,1805.88 21323.54,1805.88 21323.54,1847 21060.54,1847 21060.54,2049.74 21358.98,2049.74 "/>
  <path id="16" class="fil1" d="M21920.44 2090.86l-53.17 0c-5.67,-10.4 -10.04,-26.23 -13.12,-47.5 -3.07,-21.26 -4.6,-43 -4.6,-65.22 0,-40.64 -4.26,-68.29 -12.76,-82.94 -14.18,-24.1 -43.72,-36.15 -88.62,-36.15l-156.66 0 0 231.81 -48.21 0 0 -510.41 199.91 0c56.24,0 98.54,9.93 126.89,29.78 31.2,22.21 46.79,56.94 46.79,104.2 0,34.03 -7.09,60.73 -21.26,80.11 -12.29,17.01 -32.85,31.9 -61.68,44.66 23.63,8.51 40.41,23.28 50.33,44.31 9.93,21.03 14.89,51.63 14.89,91.8 0,29.77 1.42,54.35 4.25,73.72 2.84,19.38 8.51,31.67 17.02,36.87l0 4.96zm-51.75 -374.3c0,-28.83 -8.04,-50.8 -24.11,-65.93 -20.32,-19.37 -53.16,-29.06 -98.53,-29.06l-154.54 0 0 196.36 152.41 0c38.28,0 68.65,-8.86 91.09,-26.58 22.45,-17.72 33.68,-42.65 33.68,-74.79z"/>
  <path id="17" class="fil1" d="M22519.46 2090.86l-49.38 -0.12 -59.08 -160.09 -232.99 0 -59.9 160.21 -49.51 0 200.62 -510.41 54.59 0 195.65 510.41zm-124.29 -201.33l-100.31 -267.73 -99.84 267.73 200.15 0z"/>
  <path id="18" class="fil1" d="M23104.31 1922.85c-28.35,120.99 -102.08,181.48 -221.17,181.48 -76.56,0 -133.99,-28.12 -172.27,-84.24 -31.66,-46.79 -47.49,-107.64 -47.49,-182.66 0,-95.35 23.63,-165.88 70.89,-211.73 40.17,-38.63 95.46,-58.01 165.88,-58.01 48.21,0 89.08,11.11 122.64,33.32 41.12,27.41 66.4,70.18 75.85,128.31l-49.62 0c-9.45,-44.42 -29.07,-76.32 -58.84,-95.7 -25.05,-16.54 -58.6,-24.81 -100.66,-24.81 -58.61,0 -103.74,22.45 -135.4,67.23 -28.36,40.64 -42.54,93.69 -42.54,159.26 0,64.16 12.53,115.79 37.57,155.01 31.2,48.56 79.16,72.9 143.91,72.9 36.39,0 67.82,-9.92 94.28,-29.77 32.14,-24.1 54.35,-60.97 66.64,-110.59l50.33 0zm-154.54 254.14c0,21.39 -8.74,37.34 -26.23,47.73 -14.17,8.63 -32.84,12.88 -56,12.88 -10.4,0 -20.68,-1.18 -30.84,-3.54 -10.16,-2.37 -20.44,-5.67 -30.83,-9.93l10.63 -21.26c20.79,7.09 35.92,10.63 45.37,10.63 12.76,0 23.75,-2.84 32.96,-8.63 9.22,-5.67 13.83,-13.82 13.83,-24.33 0,-9.1 -3.43,-16.19 -10.28,-21.15 -6.86,-5.08 -15.24,-7.56 -25.17,-7.56 -8.51,0 -18.9,2.12 -31.19,6.38l-10.63 -9.81 42.53 -57.54 27.65 0 -33.32 41.83c9.92,-3.31 18.67,-4.97 26.23,-4.97 14.18,0 26.94,4.14 38.28,12.53 11.34,8.27 17.01,20.55 17.01,36.74z"/>
  <path id="19" class="fil1" d="M23701.21 2090.86l-49.38 -0.12 -59.08 -160.09 -232.99 0 -59.9 160.21 -49.51 0 200.62 -510.41 54.59 0 195.65 510.41zm-124.29 -201.33l-100.31 -267.73 -99.84 267.73 200.15 0zm14.41 -429.59c-1.89,19.85 -8.03,36.39 -18.43,49.62 -10.39,13.23 -23.63,19.85 -39.7,19.85 -13.7,0 -31.9,-5.32 -54.58,-15.95 -22.69,-10.63 -38.75,-15.95 -48.21,-15.95 -8.5,0 -15.59,2.6 -21.26,7.8 -5.67,5.2 -10.4,14.18 -14.18,26.94l-25.52 0c0,-18.91 6.26,-35.09 18.78,-48.56 12.53,-13.47 27.77,-20.21 45.73,-20.21 10.87,0 27.88,5.32 51.04,15.95 23.16,10.64 39.23,15.95 48.2,15.95 7.57,0 13.95,-2.6 19.14,-7.79 5.2,-5.2 9.22,-14.42 12.06,-27.65l26.93 0z"/>
  <path id="20" class="fil1" d="M24324.34 1836.72c0,74.08 -18.43,135.16 -55.29,183.37 -43.01,56.12 -103.97,84.24 -182.9,84.24 -72.78,0 -130.55,-24.46 -173.32,-73.25 -42.77,-48.92 -64.16,-114.37 -64.16,-196.49 0,-75.97 19.61,-138.23 58.84,-186.91 43.01,-53.29 102.08,-79.99 177.23,-79.99 76.08,0 135.63,25.99 178.64,77.86 40.64,48.68 60.96,112.36 60.96,191.17zm-48.2 -0.71c0,-69.35 -16.78,-124.53 -50.33,-165.65 -33.56,-40.99 -80.35,-61.55 -140.37,-61.55 -60.49,0 -107.75,22.68 -141.78,67.93 -31.19,41.59 -46.78,94.41 -46.78,158.56 0,65.57 14.41,118.39 43.24,158.56 33.55,46.2 82.7,69.35 147.45,69.35 63.33,0 111.77,-23.63 145.33,-70.77 28.82,-40.64 43.24,-92.75 43.24,-156.43z"/>
  <rect class="fil0" x="1773.92" y="1208.72" width="1834.11" height="1308.67"/>
  <rect class="fil0" x="33720.55" y="1208.72" width="1834.11" height="1308.67"/>
  <g id="_1546617679648">
   <path class="fil2" d="M2314.55 1690.46c0,9.38 3.62,27.47 5.23,37.22 1.81,10.97 5.27,23.1 8.8,33.65 12.77,38.14 19.34,52.17 40.23,87.7 0.8,1.36 1.19,2.01 2.06,3.18 8.24,11.11 15.74,22.85 24.95,33.2 0.96,1.09 1.64,1.56 2.55,2.69l17.79 20c1.89,1.89 3.35,3.34 5.23,5.24l11.35 10.16c1.03,0.99 1.57,1.66 2.62,2.62 0.57,0.53 0.7,0.62 1.24,1.08l0.96 0.79c0.13,0.11 0.49,0.43 0.62,0.54l17.91 14.07c2.17,1.62 3.93,2.92 6.07,4.4l12.87 8.64c21.06,14.05 39.23,22.77 63.13,32.82 18.5,7.77 36.99,13.39 57.09,17.34 11.57,2.28 23.65,4.54 36.76,5.69 6.54,0.57 13.34,0.37 20.12,1.39 7.39,1.11 12.28,0.33 20.02,0.34 27.97,0 54.07,-3.04 76.28,-8.62 17.31,-4.34 32.92,-8.25 48.72,-15.24 10.78,-4.77 17.56,-6.43 29.86,-12.59 13.93,-6.97 27.61,-14.85 40.51,-23.45 8.58,-5.72 16.55,-11.48 24.51,-17.95 7.88,-6.4 15.12,-13.59 22.73,-20.29l11.75 -11.51c5.42,-6.49 10.41,-11.19 16.26,-18.64 5.45,-6.95 11.23,-13.61 16.27,-20.94 1.54,-2.24 3.1,-4.06 4.39,-6.08 14.3,-22.41 27.33,-44.83 37.33,-69.67 13.15,-32.69 18.25,-59.41 22.76,-94.12 0.28,-2.11 0.99,-7.67 0.99,-10.06l-113.96 0c-2.81,0 -2.97,8.52 -3.33,10.63 -2.02,11.96 -4.2,23.54 -7.79,35.24 -3.16,10.32 -7.03,20.76 -11.94,30.51 -6.22,12.33 -12.88,24.74 -21.22,35.78l-19.24 23.78c-1.35,1.52 -1.64,2.24 -3.2,3.79 -3.62,3.6 -6.87,7.4 -10.95,10.55l-7.37 6.6c-7.26,7.21 -16.08,12.7 -24.63,18.4 -31.09,20.73 -67.36,34.36 -104.88,37.58 -40.27,3.46 -67.06,1.49 -105.18,-11.14 -6.46,-2.14 -14.03,-5.1 -19.85,-8.06 -6.05,-3.09 -12.72,-5.93 -18.58,-9.34 -2.92,-1.69 -5.77,-3.27 -8.93,-5.02 -11.53,-6.39 -25.69,-17.7 -36.01,-26.79l-23.82 -25.02c-8.79,-10.05 -15.89,-21.53 -22.8,-33.03 -1.87,-3.11 -3.47,-5.56 -5.24,-8.72 -5.08,-9.04 -9.58,-19.12 -12.85,-29.02l-6.59 -21.31c-2.51,-8.41 -6.47,-26.67 -6.47,-35.41l-115.13 0 0 6.4z"/>
   <path class="fil2" d="M2314.55 1625.32l0 5.82 115.13 0c0,-4.68 1.08,-8.14 1.75,-12.21l3.44 -17.49c0.5,-2.28 0.77,-3.37 1.41,-5.57 1.15,-3.98 2.1,-7.43 3.36,-11.18 9.56,-28.44 20.89,-50.1 38.71,-74.1l9.62 -11.32c1.34,-1.52 1.63,-2.24 3.19,-3.79l11.73 -11.53c9.29,-7.83 14.57,-13.71 25.75,-21.34 15.52,-10.6 24.01,-15.46 40.02,-23.37 16.51,-8.17 35.59,-12.99 53.59,-17.35 11.15,-2.7 36.2,-4.76 47.57,-4.76 16.1,0 29.56,1.77 44.62,4.23 21.12,3.45 50.48,14.33 68.58,24.45l8.94 5.02c8.87,5.31 17.37,11.21 25.56,17.47 2.69,2.05 4.95,4.15 7.63,6.32 2.93,2.37 4.89,4.4 7.62,6.92l14.26 13.66c6.77,7.32 12.9,15.58 18.83,23.61 14.77,19.99 26.27,42.82 33.31,66.72 3.11,10.57 8.45,28.93 9.02,40.41 0.12,2.46 -0.14,5.2 2.36,5.2l113.96 0c0,-11.04 -3.02,-26.72 -5.08,-37.37 -2.74,-14.18 -5.6,-29.22 -10.62,-42.89 -10.63,-28.97 -8.64,-25.99 -22.29,-53.3 -12.09,-24.2 -26.47,-47.62 -44.44,-67.79 -1.08,-1.22 -1.48,-1.5 -2.46,-2.77 -4.66,-6.08 -10.19,-11.59 -15.55,-17.02l-16.77 -15.21c-4.79,-3.7 -11.35,-10.96 -16.77,-15.22 -48.77,-38.35 -101.22,-62.02 -163.73,-72.35 -5.62,-0.93 -12.87,-2.44 -18.64,-2.87 -7.29,-0.53 -19.1,-1.8 -30.19,-2.37l-17.71 0c-1.02,0.09 -1.99,0.2 -2.89,0.34 -3.28,0.49 -6.57,0.09 -9.89,0.58 -6.5,0.95 -12.73,0.77 -19.2,1.73 -6.44,0.95 -11.97,1.81 -18.25,2.69 -22.93,3.2 -44.81,10 -66.46,17.84 -2.61,0.95 -4.69,2.09 -7.42,3.06 -11.26,4.02 -22.14,9.44 -32.71,14.97 -28,14.67 -42.09,27.29 -65.95,45.11l-37.29 36.56c-13.03,15.57 -30.32,37.47 -39.71,55.66 -1.21,2.34 -2.36,4.13 -3.69,6.78 -3.6,7.24 -7.77,13.87 -10.77,21.21 -2.04,5 -4.04,9.65 -6.28,14.66 -13.01,29.1 -19.67,60.66 -24.14,92.17 -0.44,3.15 -1.06,6.12 -1.06,9.98z"/>
   <path class="fil2" d="M2365.14 2148.13l0 11.64c14.89,0 32.95,-1.6 44.86,4.56 3.03,1.56 5,3.2 6.8,5.99 5.88,9.09 2.26,20.79 -5.96,26.43 -4.42,3.04 -13.3,4.89 -20.7,4.89l-33.72 0 0 -116.89c14.9,0 54.07,-3.58 54.07,17.44 0,7.34 -0.95,13.12 -7.79,17.22 -11.59,6.95 -25.53,2.14 -32.35,11.84 -3.01,4.29 -5.21,9.57 -5.21,16.88zm-51.17 -97.11l0 184.35c0,1.34 0.4,1.74 1.74,1.74l79.08 0c12.25,0 25.95,-3.1 36.44,-7.76 17.39,-7.73 30.43,-21.11 30.43,-44.58 0,-12.42 -5.32,-24.61 -11.47,-30.98 -6.35,-6.57 -17.4,-14.74 -27.49,-14.96 1.33,-1.81 5.52,-2.5 10.59,-5.7 9.52,-6 19.07,-18.25 19.07,-31.52 0,-12.35 0.47,-23.22 -8.58,-32.71 -1.48,-1.56 -1.73,-2.21 -3.38,-3.6 -1.7,-1.43 -2.26,-2.14 -4.06,-3.5 -15.27,-11.51 -38.24,-12.53 -60.74,-12.53l-59.89 0c-1.34,0 -1.74,0.41 -1.74,1.75z"/>
   <path class="fil2" d="M2893.68 2212.1c-22.47,0 -26.26,-20.82 -6.65,-28.17 10.37,-3.89 23.95,-3.23 35.73,-3.23l0 7.56c0,15.48 -13.36,23.84 -29.08,23.84zm-49.42 -87.23c0.66,2.48 8.18,9.64 10.03,11.49 2.77,2.77 8.13,8.76 10.9,10.61 4.81,-3.22 4.55,-4.97 13.11,-10.15 10.25,-6.19 27.17,-7.48 37.04,1.28 4.19,3.71 6.83,8.81 7.42,15.85l-15.7 0.58c-5.61,0 -10.85,0.11 -16.2,0.67 -26.76,2.81 -55.32,12.44 -55.32,44.69 0,13.38 3.72,21.47 13.81,29.8 17.31,14.28 51.06,13.34 65.99,0.01l7.42 -7.71c0,3.49 -0.4,9.72 -0.06,12.85 0.37,3.5 2.04,2.27 11.1,2.27 8.73,0 17.45,0 26.17,0 0.15,-1.82 0.58,-2.06 0.58,-4.07l0 -47.1c0,-41.92 -1.85,-74.55 -45.09,-81.11l-17.12 -0.89c-15.52,0 -31.34,5.19 -43.43,12.39 -3.35,2 -8.69,5.62 -10.65,8.54z"/>
   <path class="fil2" d="M2630.86 2212.69c-7.35,0 -19.18,-4.82 -19.18,-11.63 0,-8.56 0.95,-13.94 13.28,-17.54 10.78,-3.14 22.56,-2.82 34.4,-2.82 0,5.97 0.66,14.07 -2.57,18.95 -1.58,2.39 -3.98,5.11 -6.14,6.66 -4.13,2.96 -14.94,6.38 -19.79,6.38zm-50 -87.82c1.9,3.59 20.38,21.34 21.51,22.1 1.44,-0.96 1.77,-1.56 3.05,-2.77 8.89,-8.32 17.94,-12.35 31.26,-12.35 10.13,0 22.68,9.29 22.68,20.94 0,2.89 -9.12,1.75 -14.54,1.74 -12.27,-0.03 -32.26,2.24 -43.45,6.56 -12.45,4.8 -21.76,10.85 -26.68,23.33 -3.63,9.2 -3.18,23.45 0.92,31.77 6.92,14.04 21.76,23.83 38.97,23.83 6.98,0 11.44,0.14 18.46,-1.32 3.44,-0.71 7.1,-2.15 10.23,-3.72 3.88,-1.95 9.59,-5.37 12.47,-8.46 1.65,-1.77 1.53,-2.55 3.62,-3.95 0,5.48 -1.16,14.54 1.74,14.54l34.31 0c1.34,0 1.74,-0.4 1.74,-1.74l0 -60.48c0,-31.17 -4.14,-59.38 -35.7,-68.39 -12.59,-3.59 -33.58,-2.9 -46.52,0.11 -8.59,1.99 -20.19,7.26 -26.85,12.11 -2.42,1.75 -5.74,3.93 -7.22,6.15z"/>
   <path class="fil2" d="M2718.08 2144.65l0 6.39c0,43.76 66.87,31.1 66.87,48.85 0,12.58 -25.3,11.29 -36.54,3.98 -3.82,-2.49 -5.31,-5.89 -9.39,-8.05 -2.23,1.93 -3.91,3.97 -5.95,6.26l-5.93 6.87c-1.04,1.35 -1.65,1.85 -2.81,3l-9.15 10.04c1.43,6.14 14.27,11.43 19.27,13.29 16.86,6.27 38.3,6.96 55.85,2.53 7.73,-1.95 11.69,-3.61 17.73,-7.27 22.18,-13.43 21.38,-44.59 9.93,-56.1 -0.75,-0.75 -1.01,-1.03 -1.7,-1.79 -0.32,-0.35 -0.5,-0.57 -0.83,-0.91 -6.73,-6.81 -16.75,-10.26 -26.07,-12.31 -4.38,-0.97 -7.82,-1.77 -11.92,-2.62 -8.11,-1.67 -18.65,-3.78 -18.65,-11.58 0,-11.76 19.56,-11.09 28.69,-6.02 3.34,1.85 5.02,4.65 7.94,6.6 1.53,-0.41 11.1,-9.64 12.94,-11.49l9.31 -8.71c0.86,-0.94 0.57,-0.7 1.24,-1.66l1.51 -1.99c-1.02,-1.52 -1.55,-2.59 -3.14,-3.83 -4.93,-3.88 -7.49,-5.56 -13.96,-8.14 -22.11,-8.8 -49.51,-7.67 -69.43,5.68 -8.55,5.73 -15.81,18.27 -15.81,28.98z"/>
   <path class="fil2" d="M2983.23 2037.06l0 198.31c0,2.84 6,1.74 8.72,1.74l31.98 0c0.3,-1.3 0.58,-1.34 0.58,-2.91l0 -197.14c0,-1.34 -0.4,-1.75 -1.74,-1.75l-37.8 0c-1.34,0 -1.74,0.41 -1.74,1.75z"/>
   <path class="fil2" d="M2520.97 2126.62l0 -19.78 -40.12 0 0 130.27 40.12 0c0,-18.16 -0.72,-52.13 1.21,-69.15 0.91,-8.05 2.93,-15.2 7.35,-19.98 1.87,-2.02 5.34,-4.07 8.12,-5.26 7.21,-3.07 19.91,-3.52 28.64,-1.53 2.1,0.48 3.13,1.13 5.85,1.13l0 -37.22c-3.83,-0.32 -7.21,-1.16 -11.63,-1.16 -14.8,0 -24.17,4.21 -32.71,13.81 -1.19,1.34 -2.18,2.87 -3.26,4.3 -1.11,1.46 -2.31,3.64 -3.57,4.57z"/>
   <path class="fil2" d="M2830.89 2292.36l0 75.02 11.04 0 0 -59.32c1.87,1.25 3.11,4.31 4.47,6.58l24.81 44.98c1.4,2.57 3.18,4.8 3.87,7.76l15.11 0 0 -75.02 -11.62 0 0 58.15c-1.93,-1.41 -3.24,-4.7 -4.46,-7.17l-10.27 -18.81c-0.93,-1.73 -1.41,-2.21 -2.34,-4.06l-12.4 -22.49c-3.58,-6.68 -1.63,-6.2 -11.82,-6.2 -3.23,0 -3.45,0.58 -6.39,0.58z"/>
   <path class="fil2" d="M2546.55 2327.83c0,28.17 17.51,41.29 43.03,41.29 7.09,0 14.4,-2.1 20.35,-3.49l0 -39.54 -27.33 0c-0.88,3.78 -0.88,5.52 0,9.3 4.88,1.14 10.62,0.58 15.7,0.58l0.58 16.87c0,5.72 -3.08,5.81 -8.14,5.81 -10.3,0 -16.98,-1.51 -22.25,-6.82 -6.92,-6.99 -8.09,-9.27 -9.34,-19.78 -0.94,-7.89 2.71,-16.68 6.71,-21.54 1.67,-2.03 1.47,-1.83 3.49,-3.49 9.49,-7.81 24.12,-7.54 35.01,-2.69 2.57,1.15 2.15,1.35 4.41,1.4l0.58 -11.05c-6.76,-3.24 -16.13,-4.07 -23.84,-4.07 -21.8,0 -38.96,17.64 -38.96,37.22z"/>
   <path class="fil2" d="M2294.78 2324.34l-6.98 0 0 -22.1 11.05 0c17.12,0 19.68,22.1 -4.07,22.1zm-19.19 -31.98l0 75.02 12.21 0 0 -32.57c3.84,0 11.57,-2.42 15.81,3.38 1.52,2.08 12.62,26.19 12.69,29.19l13.37 0c-0.35,-4.2 -6.91,-15 -8.8,-19.69 -1.11,-2.74 -5.61,-12.29 -7.33,-14.19 -1.4,-1.54 -2.51,-2.23 -3.64,-3.92 4.66,-0.39 10.09,-4.67 12.19,-8.74 2.61,-5.04 2.57,-11.18 0.54,-16.79 -5.02,-13.85 -25.47,-12.27 -40.64,-12.27 -3.23,0 -3.45,0.58 -6.4,0.58z"/>
   <path class="fil2" d="M2472.71 2324.34l-6.4 0 0 -22.1c8.36,0 24.42,-1.79 24.42,10.47 0,9.17 -8.72,11.63 -18.02,11.63zm-18.03 -31.98l0 75.02 11.63 0 0 -32.57c16.89,0 14.62,-0.92 21.32,14.16 1.47,3.32 2.98,6.22 4.19,9.18 1.31,3.23 2.61,6.33 4.15,9.23l12.79 0 -13.38 -28.5c-1.52,-3.04 -2.8,-7.18 -6.39,-8.14l0 -1.16c17.24,-4.02 16.85,-25.36 7.83,-32.26 -8.23,-6.3 -22.64,-5.54 -33.42,-5.54 -3.86,0 -5.03,0.58 -8.72,0.58z"/>
   <path class="fil2" d="M2704.71 2324.34c-8.46,0 -6.4,3.16 -6.4,-20.35 0,-2.82 4.23,-1.75 11.63,-1.75 4.35,0 9.9,1.98 11.86,5.59 5.77,10.66 -4.45,16.51 -17.09,16.51zm-17.44 43.04l11.04 0 0 -32.57c11.15,0 14.54,-1.61 18.02,5.82l7.95 17.64c1.15,2.58 3.1,6.61 3.69,9.11l13.37 0 -9.22 -19.86c-1.66,-4.1 -4.81,-10.45 -7.38,-14.13 -1.8,-2.56 -2.25,-1.57 -3.75,-3.81 13.93,-1.16 20.26,-22.79 8.16,-32.01 -3.2,-2.44 -8.37,-5.21 -13.97,-5.21l-27.91 0 0 75.02z"/>
   <path class="fil2" d="M2783.21 2304.57l3.24 8.39c1.85,4.85 9.84,23.07 10.13,26.5l-27.91 0c0.22,-2.58 8.59,-22.34 10.22,-26.41 1.38,-3.47 2.22,-7.08 4.32,-8.48zm-38.38 62.81l12.79 0 5.22 -14.55c0.63,-1.65 0.95,-4.06 2.92,-4.06l33.73 0c2.04,0 5.73,10.67 6.76,13.59 0.78,2.23 1.49,3.01 1.96,5.02l12.21 0c-0.19,-2.33 -9.92,-24.58 -11.65,-28.48l-16.18 -38.48c-3.24,-8.13 -2.8,-8.64 -7.64,-8.64 -2.23,0 -4.53,0.14 -6.37,0.61 -3.33,0.84 -3.46,4.56 -5.27,8.68 -0.72,1.66 -1.57,3.61 -2.3,5.26 -5.02,11.46 -21.64,52.47 -26.18,61.05z"/>
   <path class="fil2" d="M2628.54 2367.38l43.03 0c0,-13.42 4.76,-10.47 -30.82,-10.47l0 -23.26 26.17 0c2.72,0 1.74,-3.57 1.74,-10.47l-27.91 0 0 -20.94 30.82 0 0 -9.88 -43.03 0 0 75.02z"/>
   <path class="fil2" d="M2342.46 2367.38l43.03 0c1.33,-13.33 3.93,-10.47 -31.4,-10.47l0 -23.26 28.49 0c0,-4.98 1.2,-10.47 -1.74,-10.47l-26.75 0 0 -20.94c38.38,0 31.4,2.6 31.4,-9.88l-43.03 0 0 75.02z"/>
   <path class="fil2" d="M2968.69 2367.38l42.45 0c0,-6.9 0.98,-10.47 -1.75,-10.47l-29.65 0 0 -23.26 26.75 0c2.73,0 1.74,-3.57 1.74,-10.47l-28.49 0 0 -20.94 31.4 0 0 -9.88 -42.45 0 0 75.02z"/>
   <path class="fil2" d="M3022.77 2310.97c0,4.97 1.69,9.75 4.49,12.95 7.4,8.47 27.49,11.96 27.49,20.78 0,6.33 0.64,6.64 -4.49,11.21 -6.67,5.94 -19.55,0.56 -25.17,-0.74 -2.82,12.11 -0.91,10.97 5.29,12.74 2.22,0.63 4.64,1.04 7.14,1.21l5.31 0c12.31,-0.85 24.71,-7.69 24.71,-23.26 0,-23.15 -31.98,-22.42 -31.98,-34.31 0,-7.73 3.12,-10.47 13.37,-10.47 6.71,0 10.59,2.68 13.38,2.91 0,-9.15 5.32,-10.29 -5.66,-12.37 -17.09,-3.24 -33.88,2.88 -33.88,19.35z"/>
   <path class="fil2" d="M2400.61 2367.38l12.21 0 0 -33.73 27.33 0 0 -10.47 -27.33 0 0 -20.94 27.33 0c2.68,0 1.74,-3.26 1.74,-9.88l-41.28 0 0 75.02z"/>
   <path class="fil2" d="M2900.08 2302.24l22.68 0 0 65.14c7.62,0 12.21,1.12 12.21,-1.75l0 -63.39 23.26 0 0 -9.88 -58.15 0 0 9.88z"/>
   <path class="fil2" d="M2520.39 2365.63c0,1.34 0.4,1.75 1.74,1.75l10.47 0 0 -75.02 -12.21 0 0 73.27z"/>
  </g>
  <g id="_1546617676832">
   <path class="fil2" d="M34455.57 2035.84c-55.5,-35.75 -130.82,-42.02 -252.29,-8.32 -129.5,30.43 -172.68,49.94 -229.38,10.78 -21.79,-19.24 -29.59,-50.21 -23.76,-94.83 13.52,-72.73 50.08,-142.73 115,-220.36 36.25,-40.39 69.86,-75.05 114.26,-88.96 34.02,-8.74 30.84,18.01 26.72,21.83 -4.34,0 -11.64,0.68 -17.28,4.36 -4.58,3.54 -17.14,15.02 -17.81,30.43 -0.97,23.6 23.45,18.69 33.99,5.73 11.35,-14.6 28.13,-42.57 14.94,-68.63 -5.54,-9.28 -15.1,-15.69 -26.97,-17.88 -40.65,-2.32 -78.51,17.06 -113.44,38.49 -76.41,53.07 -137.53,126.61 -172.12,207.12 -19.94,48.57 -37.97,118.16 -10.94,174.79 20.9,39.29 64.32,60.17 116.11,55.81 36.33,-3.83 80.25,-15.56 109.79,-22.66 29.54,-7.09 180.76,-59.08 230.45,31.39 0,0 16.52,-32.07 57.81,-32.75 33.95,-3.14 82.92,9.82 118.58,36.02 -11.87,-17.88 -45.56,-44.21 -73.66,-62.36z"/>
   <path class="fil2" d="M34218.69 1732.25c-28.28,-18.55 -85.13,16.92 -130.66,77.77 -41.63,54.58 -59.61,118.03 -40.05,147.37 29.11,34.52 83.14,-15.69 106.12,-42.57l2.96 -3.14c15.63,-16.78 27.7,-36.98 39.38,-56.35 0,0 10.74,-17.74 11.26,-18.56 6.63,-1.23 14.62,-3.14 23.64,-5.73 -0.13,0.4 -34.47,58.12 -30.97,86.78 1.09,8.73 0.26,40.66 31.43,50.35 41.55,6.96 74.72,-25.25 103.99,-53.9 0,0 4.99,-4.78 7.81,-7.5 -0.72,2.86 -1.64,6.68 -1.64,6.68 -12.17,42.3 4.23,51.17 14.48,54.44 31,9.01 68.03,-36.02 68.15,-36.02 -0.96,14.19 -3.77,25.93 11.18,35.34 14.12,5.05 28.4,-2.45 39.26,-9.68 39.1,-27.57 70.61,-70.96 96.06,-107.8l-16.24 0c-0.19,0.27 -40.05,57.58 -65.93,70.14 -0.04,0 -4.75,2.32 -7.47,0.4 -3.36,-2.86 -2.03,-9.27 0.04,-13.5 0.14,-0.28 99.94,-173.84 99.94,-173.84l-47.12 0c0,0 -5.15,8.73 -5.57,9.28 -0.32,-0.27 -1.07,-1.5 -1.6,-2.18 -29.2,-40.39 -95.32,21.83 -145.09,93.87 -19.17,27.7 -43.57,58.95 -68.87,81.46 0,0 -37.48,34.39 -53.49,9.69 -5.86,-10.37 -4.06,-25.52 -0.76,-35.47 18.65,-53.08 50.78,-101.25 87.34,-130.31 10.32,-8.05 21.54,-10.37 27.1,-6.96 5.31,3.14 6.17,10.91 2.81,16.24 -8.51,-0.27 -15.34,2.32 -20.88,8.05 -10.93,11.45 -14.73,22.51 -11.25,32.88 16.87,24.02 50.53,-23.47 48.9,-52.4 -0.58,-10.37 -6.12,-20.19 -14.37,-24.97 -12.31,-7.37 -31.09,-5.45 -43.24,0.41 -16.26,6.14 -42.01,27.56 -57.03,44.21 -18.93,20.88 -51.38,44.08 -61.52,41.48 3.33,-8.87 30.74,-64.95 1.9,-85.96zm227.21 82.96c9.16,-12.69 35.85,-46.66 42.35,-52.39 21.88,-19.25 30.62,-10.79 31.38,-4.78 -20.42,36.56 -44.52,78.46 -67.17,116.11 0.04,-0.13 -7.09,10.78 -7.09,10.78 -10.01,15.29 -20.09,28.38 -36.52,37.53 -2.34,0.68 -6.21,0.95 -8.78,-0.96 -3.1,-2.04 -4.32,-5.46 -3.96,-9.01 0.98,-11.73 12.93,-47.61 49.79,-97.28zm-256.37 21.97c0,0 -0.41,1.23 -0.62,1.63 -0.05,0 -20.54,33.43 -20.54,33.43 -12.37,16.51 -27.81,37.25 -47.11,47.22 -5.73,1.9 -13.63,3.13 -17.66,-1.91 -8.55,-10.24 -4.15,-24.43 -0.57,-35.89l1.27 -4.1c10.25,-27.83 26.54,-52.38 42.37,-75.18 0.2,-0.14 0.64,-0.27 0.8,-0.27 0.04,0.13 0.11,0.13 0.14,0.41 9.93,19.1 28.58,27.97 42.51,32.07 0.09,0 0.18,0.13 0.18,0.41 0,0.4 -0.23,0.95 -0.77,2.18zm19.41 -39.43c-0.09,0.27 -9.12,21.01 -9.12,21.01 -1.31,1.09 -3.38,0.55 -5.75,0l-4.05 -0.69c-12.74,-3.95 -22.35,-12.41 -25.31,-22.51 -4.09,-19.64 12.7,-35.06 20.1,-40.66 7.09,-4.91 18.12,-7.5 24.53,-2.45 3.95,4.63 5.45,10.64 5.45,17.19 0,8.87 -2.74,18.83 -5.85,28.11z"/>
   <path class="fil2" d="M34804.71 1861.06c-4.55,-9.83 -15.34,-16.1 -26.83,-15.42 -37.33,3.41 -73.85,34.11 -93.02,78.18 -10.06,22.65 -15.55,41.35 -19.15,71.09 11.61,-13.37 35.28,-35.34 62.15,-47.35 0,0 3.66,-28.51 22.31,-53.89 7.05,-10.51 21.17,-27.43 37.02,-22.93 13.85,4.65 8.99,42.99 -9.42,80.09 -13.62,27.3 -34.46,54.59 -55.56,73.42 -18.65,15.83 -46.23,34.93 -70.37,20.19 -15.2,-9 -22.96,-27.83 -21.32,-52.12 7.27,-68.91 38.63,-127.58 83.52,-194.43 46.28,-62.09 97.29,-125.81 166.03,-159.79 14.02,-7.1 27,-8.73 38.22,-4.36 0,0 -64.52,35.47 -95.27,101.1 -7.82,16.65 -18.7,39.16 -7.75,59.09 5.73,10.37 15.9,11.18 24.08,10.63 37.69,-8.73 62.06,-43.93 81.94,-76.13 11.54,-24.42 21.8,-48.71 21.8,-75.73 0,-3.27 -0.16,-7.64 -0.44,-10.91 18,-9.56 54.93,7.36 54.93,7.36 28.86,9.56 90.31,56.63 111.04,65.63 10.11,-11.73 26.72,-29.47 36.09,-38.33l-13.55 -8.33c-21.69,-13.24 -44.6,-25.79 -67.17,-38.21 -51.22,-27.96 -92.93,-18.14 -114.15,-10.5 -8.34,3 -15.97,5.6 -15.97,5.6 -15.75,-17.2 -41.58,-15.56 -60.61,-10.92 -68.45,19.65 -132,67.54 -200.14,150.63 -50.09,65.09 -81.16,121.31 -97.73,176.84 -12.76,37.39 -16.64,92.38 14.51,124.99 26.5,27.69 61.62,21.69 86.43,11.73 53.75,-26.47 102.06,-83.51 126.13,-149.14 5.79,-19.51 12.25,-47.07 2.25,-68.08zm123.58 -205.63c-7.12,81.6 -70.54,129.49 -86.23,133.31 -9.51,1.9 -25.74,-2.32 -11.25,-36.57 21.33,-46.12 57.75,-85.28 96.83,-105.33 0.95,3.41 0.92,5.58 0.65,8.59z"/>
   <path class="fil2" d="M35304.53 1665.8c-34.12,19.38 -69.49,31.92 -112.3,27.56 -11.87,13.37 -23.41,27.16 -34.07,41.35 60.1,15.28 123.8,-18.7 159.32,-51.04 37.59,-32.61 56.87,-73.68 56.87,-73.68 0,0 -28.18,32.2 -69.82,55.81z"/>
   <polygon class="fil2" points="34659.76,1732.93 34615,1732.93 34589.76,1775.64 34634.5,1775.64 "/>
   <path class="fil2" d="M35192.05 2040.08c-4.81,3.27 -11.57,0.54 -9.04,-6.96 6.29,-19.11 31.33,-58.4 31.33,-58.4l69.71 -124.03 -47.75 0c-2.27,4.09 -7.12,12.55 -7.12,12.55 -2.21,-3.69 -8.82,-11.74 -11.54,-13.51 -11.67,-7.36 -28.8,-3.82 -40.6,2.87 -51.34,30.02 -88.81,89.37 -118.36,135.62 0,0 -31.09,51.45 -48.36,55.27 -13.46,1.08 -12.09,-17.06 -11.5,-21.29 5.21,-30.56 17.32,-59.63 29.52,-85.96 24.78,-17.19 53.09,-39.71 78.81,-64.4 55.82,-53.35 102.88,-113.8 109.75,-127.31 0,0 -7.44,1.5 -16.23,1.78 -42.94,59.89 -130.82,146.95 -157.46,159.91 11.8,-28.38 88.05,-163.87 152.94,-228.69l10.21 -9.82c15.79,-15.42 32.15,-31.25 44.89,-33.84 1.36,-0.13 3.09,0 4.58,3.14 0.57,12.01 -3.89,20.87 -9.02,30.97l-7.18 14.74c0,0 10.17,-1.92 16.86,-4.1 7.76,-14.6 16.34,-30.97 13.17,-50.48 -1.06,-6.28 -5.59,-11.05 -11.54,-12.14 -19.35,-3.68 -40.45,10.63 -57.43,22.24l-0.68 0.41c-87.25,68.36 -160.94,166.88 -225.35,301.41 -4.68,3.55 -22.71,7.77 -25.78,5.73 6.37,-13.1 14.37,-30.7 18.38,-49.8 0.7,-5.46 1.35,-11.06 1.35,-16.51 0,-11.74 -2.83,-22.79 -13.35,-30.43 -12.33,-6.14 -27.58,-3.27 -37.86,1.36 -46.05,19.1 -80.46,66.31 -105.29,105.2 -13.36,24.7 -26.68,51.17 -30.37,81.46 -2.6,23.75 2.7,39.03 16.19,46.67 13.88,7.09 31.36,-0.28 38.21,-3.82 46.65,-24.56 79.25,-73.82 104.94,-118.85 1.02,-0.13 15.06,-0.55 25.66,-3.27 0.15,0 0.2,0 0.44,0.14 -0.61,2.04 -6.1,18.41 -6.1,18.41 -16.28,47.76 -23.81,80.23 -8.42,99.47 21.97,27.16 58.36,-0.95 87.96,-38.07 -6.35,44.49 16.7,51.44 34.27,48.03 20.19,-5.46 42.68,-27.01 53.11,-38.07 -3.34,12.97 -2.42,36.16 15.93,38.49 12.59,2.31 22.01,-4.1 32.92,-9.97 39.09,-21.29 85.88,-92.65 98.04,-112.29l-15.93 0c-17.28,25.51 -39.26,59.9 -66.91,76.14zm-350.91 -5.19c-2.48,-3.68 -3.3,-7.92 -3.39,-12.28 -0.48,-26.74 28.31,-74.37 48.62,-100.97 0.06,0 0.06,0 0.06,0 8.5,19.78 27.79,30.84 39.43,35.89 -14.46,32.2 -64.04,101.37 -84.72,77.36zm92.87 -91.56c-1.38,0.96 -25.69,-7.23 -30.38,-29.74 -3.98,-19.38 9.36,-34.53 22.27,-42.16 5.54,-4.37 13.9,-5.87 20.01,-3.69 5.69,3.82 7.23,10.64 7.23,18.01 0,4.51 -0.6,9.15 -1.12,13.38 0,0 -0.1,0.81 -0.12,0.95 -4.05,15.15 -10.26,30.02 -17.89,43.25zm195.02 82.96c-0.02,0 -4.61,4.1 -4.61,4.1 -6.56,5.86 -13.32,12.14 -21.45,9.01 -2.25,-0.83 -3.84,-3.83 -4.22,-6.15 -0.37,-16.78 7.2,-32.34 14.52,-47.48l1.87 -3.96c21.09,-35.2 45.59,-76.68 81.59,-105.47 6.06,-4.37 12.65,-8.05 19.59,-5.19 1.6,1.51 3.46,4.1 3.46,6.69 0,0.82 -0.73,3 -1.15,3.68 -10.06,16.24 -19.63,33.3 -28.94,49.67 -18.19,32.33 -37.06,65.77 -60.66,95.1z"/>
  </g>
 </g>
</svg>
