<?xml version="1.0" standalone="no"?>
<!DOCTYPE svg PUBLIC "-//W3C//DTD SVG 20010904//EN"
 "http://www.w3.org/TR/2001/REC-SVG-20010904/DTD/svg10.dtd">
<svg version="1.0" xmlns="http://www.w3.org/2000/svg"
 width="1280.000000pt" height="975.000000pt" viewBox="0 0 1280.000000 975.000000"
 preserveAspectRatio="xMidYMid meet">
<metadata>
Created by potrace 1.15, written by Peter Selinger 2001-2017
</metadata>
<g transform="translate(0.000000,975.000000) scale(0.100000,-0.100000)"
fill="#000000" stroke="none">
<path d="M7800 9739 c-587 -39 -1099 -174 -1706 -449 -464 -210 -657 -333
-1109 -704 -451 -370 -616 -424 -1105 -362 -321 40 -438 49 -690 49 -337 0
-530 -26 -765 -104 -315 -105 -538 -286 -711 -576 -154 -259 -252 -589 -321
-1083 -28 -194 -28 -198 -25 -677 l3 -481 -89 -119 c-583 -776 -1013 -1749
-1181 -2673 -88 -480 -120 -944 -77 -1125 21 -89 55 -171 66 -158 5 4 47 152
95 328 147 543 223 799 319 1090 323 967 722 1691 1247 2260 l92 100 271 1
c152 0 306 6 351 13 319 47 460 79 689 155 313 105 589 249 843 438 50 37 93
68 96 68 3 0 30 -46 59 -102 172 -328 460 -702 789 -1023 185 -181 304 -282
516 -441 643 -482 1410 -826 2276 -1020 82 -18 152 -36 155 -38 3 -3 0 -36 -6
-73 -6 -38 -59 -372 -118 -743 -59 -371 -108 -676 -109 -678 -2 -2 -65 -12
-141 -23 -595 -86 -963 -303 -1065 -630 -24 -78 -43 -228 -35 -274 l7 -36 31
43 c127 179 313 284 646 362 l102 24 -6 -187 c-8 -211 1 -358 20 -328 137 224
282 370 453 456 111 56 189 71 393 80 222 9 260 22 260 90 0 9 -28 45 -61 79
l-62 62 7 118 c21 351 102 737 212 1005 58 142 111 238 187 340 l61 80 130 -6
c454 -19 776 -272 861 -676 38 -184 58 -469 44 -639 -16 -197 -54 -313 -132
-399 -90 -98 -169 -128 -792 -298 -436 -120 -647 -244 -774 -455 -11 -19 -21
-38 -21 -41 0 -3 46 5 103 18 146 32 335 60 532 77 228 20 405 29 405 21 0 -3
-18 -75 -39 -158 -36 -140 -67 -304 -59 -312 2 -2 62 31 133 72 293 170 513
270 705 320 83 22 125 26 325 32 187 5 236 10 261 23 27 15 44 36 44 55 0 2
-37 44 -83 91 -151 157 -171 215 -172 482 0 152 4 205 23 295 79 392 288 745
670 1132 153 154 245 231 569 475 147 111 309 235 358 277 583 491 845 1004
970 1899 140 1006 82 1734 -187 2362 -179 419 -528 863 -913 1163 -650 506
-1793 921 -2875 1043 -163 18 -753 27 -950 13z"/>
</g>
</svg>
