<svg height="512pt" viewBox="0 0 512 512" width="512pt" xmlns="http://www.w3.org/2000/svg"><path d="m256 148c-9.953125 0-19.855469 1.375-29.433594 4.089844-5.3125 1.503906-8.402344 7.03125-6.894531 12.34375 1.503906 5.316406 7.03125 8.40625 12.347656 6.898437 7.800781-2.210937 15.871094-3.332031 23.980469-3.332031 48.523438 0 88 39.476562 88 88s-39.476562 88-88 88-88-39.476562-88-88c0-15.425781 4.078125-30.640625 11.789062-44 2.761719-4.78125 1.125-10.898438-3.660156-13.660156-4.78125-2.761719-10.898437-1.121094-13.660156 3.660156-9.464844 16.394531-14.46875 35.066406-14.46875 54 0 59.550781 48.449219 108 108 108s108-48.449219 108-108-48.449219-108-108-108zm0 0"/><path d="m482 266c5.519531 0 10-4.476562 10-10v-51.105469c11.636719-4.125 20-15.242187 20-28.277343 0-16.542969-13.457031-30-30-30s-30 13.457031-30 30c0 13.035156 8.359375 24.152343 20 28.277343v41.105469h-76v-85.464844h26c5.523438 0 10-4.476562 10-10v-45.636718c11.640625-4.128907 20-15.242188 20-28.28125 0-16.542969-13.457031-30-30-30s-30 13.457031-30 30c0 13.035156 8.363281 24.152343 20 28.28125v35.636718h-19.820312c-6.640626-14.460937-21.25-24.535156-38.179688-24.535156h-88v-20.464844h40c5.519531 0 10-4.480468 10-10v-27.253906c11.636719-4.128906 20-15.242188 20-28.28125 0-16.542969-13.457031-30-30-30s-30 13.457031-30 30c0 13.035156 8.359375 24.152344 20 28.28125v17.253906h-40c-5.523438 0-10 4.476563-10 10v30.464844h-41.792969v-63.710938c0-5.523437-4.476562-10-10-10h-22.644531c-4.128906-11.640624-15.246094-20-28.28125-20-16.542969 0-30 13.457032-30 30 0 16.539063 13.457031 30 30 30 13.035156 0 24.152344-8.363281 28.28125-20h12.644531v53.710938h-26.207031c-23.15625 0-42 18.84375-42 42v85.527344h-41v-82.960938c11.636719-4.128906 20-15.242187 20-28.28125 0-16.539062-13.457031-30-30-30s-30 13.460938-30 30c0 13.035156 8.359375 24.152344 20 28.28125v92.960938c0 5.519531 4.476562 10 10 10h51v22.472656h-86c-5.519531 0-10 4.476562-10 10v51.101562c-11.636719 4.128907-20 15.246094-20 28.28125 0 16.542969 13.457031 30 30 30s30-13.457031 30-30c0-13.035156-8.359375-24.152343-20-28.28125v-41.101562h76v29.714844h-16c-5.523438 0-10 4.476562-10 10v71.386718c-11.636719 4.128907-20 15.246094-20 28.28125 0 16.542969 13.457031 30 30 30s30-13.457031 30-30c0-13.035156-8.359375-24.152343-20-28.28125v-61.386718h6c.015625 0 .03125-.003906.042969-.003906.90625 22.367187 19.375 40.289062 41.957031 40.289062h88v20.464844h-40c-5.519531 0-10 4.480468-10 10v27.253906c-11.636719 4.128906-20 15.242188-20 28.28125 0 16.542969 13.457031 30 30 30s30-13.457031 30-30c0-13.035156-8.359375-24.152344-20-28.28125v-17.253906h40c5.519531 0 10-4.476563 10-10v-30.464844h52.300781v25.199219c0 5.519531 4.476563 10 10 10 5.519531 0 10-4.480469 10-10v-25.199219h15.699219c23.15625 0 42-18.84375 42-42v-12.214844h38c4.125 11.640625 15.242188 20 28.277344 20 16.542968 0 30-13.457031 30-30 0-16.539062-13.457032-30-30-30-13.035156 0-24.152344 8.363282-28.277344 20h-38v-55.785156zm0-99.382812c5.511719 0 10 4.484374 10 10 0 5.511718-4.488281 10-10 10-5.515625 0-10-4.488282-10-10 0-5.515626 4.484375-10 10-10zm-60-100c5.515625 0 10 4.488281 10 10 0 5.515624-4.484375 10-10 10-5.511719 0-10-4.484376-10-10 0-5.511719 4.488281-10 10-10zm-116-46.617188c5.511719 0 10 4.484375 10 10 0 5.511719-4.480469 9.996094-9.992188 10 0 0-.003906 0-.007812 0s-.007812 0-.011719 0c-5.507812-.003906-9.988281-4.488281-9.988281-10 0-5.515625 4.484375-10 10-10zm-162.71875 42.289062c-5.515625 0-10-4.488281-10-10 0-5.515624 4.484375-10 10-10 5.511719 0 9.996094 4.480469 10 9.988282v.011718.007813c-.003906 5.511719-4.488281 9.992187-10 9.992187zm-78.28125 59.996094c5.511719 0 10 4.488282 10 10 0 5.515625-4.488281 10-10 10-5.515625 0-10-4.484375-10-10 0-5.511718 4.488281-10 10-10zm-35 263.097656c-5.515625 0-10-4.484374-10-10 0-5.511718 4.480469-9.992187 9.992188-10h.007812.011719c5.507812.003907 9.988281 4.488282 9.988281 10 0 5.511719-4.484375 10-10 10zm70 70c-5.511719 0-10-4.484374-10-10 0-5.511718 4.480469-9.996093 9.992188-10h.007812.011719c5.507812.003907 9.988281 4.488282 9.988281 10 0 5.511719-4.484375 10-10 10zm106 36.617188c-5.511719 0-10-4.484375-10-10 0-5.511719 4.480469-9.996094 9.992188-10h.007812.011719c5.507812.003906 9.988281 4.488281 9.988281 10 0 5.515625-4.484375 10-10 10zm256.28125-170.214844c5.511719 0 10 4.488282 10 10 0 5.515625-4.488281 10-10 10s-9.996094-4.480468-10-9.988281c0-.003906 0-.007813 0-.011719s0-.003906 0-.007812c.003906-5.511719 4.488281-9.992188 10-9.992188zm-86.28125 32.214844c0 12.128906-9.871094 22-22 22h-196c-12.128906 0-22-9.871094-22-22v-196c0-12.128906 9.871094-22 22-22h196c12.128906 0 22 9.871094 22 22zm0 0"/><path d="m438.296875 442.585938v-21.386719c0-5.523438-4.476563-10-10-10h-31.03125c-5.523437 0-10 4.476562-10 10 0 5.519531 4.476563 10 10 10h21.03125v11.386719c-11.636719 4.128906-20 15.242187-20 28.28125 0 16.539062 13.460937 29.996093 30 29.996093 16.542969 0 30-13.457031 30-29.996093 0-13.039063-8.359375-24.152344-20-28.28125zm-10 38.277343c-5.511719 0-10-4.484375-10-9.996093 0-5.515626 4.488281-10 10-10 5.515625 0 10 4.484374 10 10 0 5.511718-4.484375 9.996093-10 9.996093zm0 0"/><path d="m368.535156 411.199219h-.269531c-5.523437 0-10 4.476562-10 10 0 5.519531 4.476563 10 10 10h.269531c5.519532 0 10-4.480469 10-10 0-5.523438-4.480468-10-10-10zm0 0"/><path d="m189.195312 194.300781c2.429688 0 4.867188-.878906 6.792969-2.660156l.078125-.074219c4.050782-3.753906 4.296875-10.078125.542969-14.132812-3.753906-4.050782-10.078125-4.292969-14.132813-.542969l-.078124.074219c-4.050782 3.753906-4.296876 10.078125-.542969 14.132812 1.96875 2.128906 4.652343 3.203125 7.339843 3.203125zm0 0"/><path d="m256 323.515625c13.101562 0 25.363281-5.570313 34.523438-15.6875 8.910156-9.835937 13.820312-22.851563 13.820312-36.644531 0-31.757813-31.332031-68.8125-40.933594-79.414063-1.898437-2.089843-4.589844-3.285156-7.410156-3.285156-2.824219 0-5.515625 1.195313-7.414062 3.285156-6.832032 7.546875-40.929688 46.839844-40.929688 79.414063 0 14.078125 4.921875 27.203125 13.855469 36.953125 9.089843 9.917969 21.335937 15.378906 34.488281 15.378906zm.003906-109.65625c14.347656 17.6875 28.339844 40.644531 28.339844 57.324219 0 8.820312-3.070312 17.066406-8.644531 23.21875-5.320313 5.875-12.316407 9.113281-19.699219 9.113281-7.476562 0-14.488281-3.15625-19.738281-8.890625-5.550781-6.054688-8.605469-14.378906-8.605469-23.441406 0-15.761719 13.300781-38.710938 28.347656-57.324219zm0 0"/></svg>